<?xml version="1.0" encoding="UTF-8" standalone="no"?>
<svg width="16px" height="16px" viewBox="0 0 16 16" version="1.1" xmlns="http://www.w3.org/2000/svg" xmlns:xlink="http://www.w3.org/1999/xlink">
    <!-- Generator: Sketch 3.7.2 (28276) - http://www.bohemiancoding.com/sketch -->
    <title>time</title>
    <desc>Created with Sketch.</desc>
    <defs></defs>
    <g id="Page-1" stroke="none" stroke-width="1" fill="none" fill-rule="evenodd">
        <g id="time" fill="#000000">
            <g id="Group">
                <path d="M8,0 C3.5888,0 0,3.5888 0,8 C0,12.4112 3.5888,16 8,16 C12.4112,16 16,12.4112 16,8 C16,3.5888 12.4112,0 8,0 L8,0 Z M8,15.4666667 C3.88293333,15.4666667 0.533333333,12.1170667 0.533333333,8 C0.533333333,3.88293333 3.88293333,0.533333333 8,0.533333333 C12.1170667,0.533333333 15.4666667,3.88293333 15.4666667,8 C15.4666667,12.1170667 12.1170667,15.4666667 8,15.4666667 L8,15.4666667 Z" id="Shape"></path>
                <path d="M8,1.6 C7.8528,1.6 7.73333333,1.7192 7.73333333,1.86666667 L7.73333333,8 L3.73333333,8 C3.58613333,8 3.46666667,8.1192 3.46666667,8.26666667 C3.46666667,8.41413333 3.58613333,8.53333333 3.73333333,8.53333333 L8,8.53333333 C8.1472,8.53333333 8.26666667,8.41413333 8.26666667,8.26666667 L8.26666667,1.86666667 C8.26666667,1.7192 8.1472,1.6 8,1.6 L8,1.6 Z" id="Shape"></path>
            </g>
        </g>
    </g>
</svg>