<?xml version="1.0" encoding="UTF-8" standalone="no"?>
<svg width="16px" height="16px" viewBox="0 0 16 16" version="1.1" xmlns="http://www.w3.org/2000/svg" xmlns:xlink="http://www.w3.org/1999/xlink">
    <!-- Generator: Sketch 3.7.2 (28276) - http://www.bohemiancoding.com/sketch -->
    <title>unlink</title>
    <desc>Created with Sketch.</desc>
    <defs></defs>
    <g id="Page-1" stroke="none" stroke-width="1" fill="none" fill-rule="evenodd">
        <g id="unlink" fill="#000000">
            <g id="Capa_1">
                <g id="Group">
                    <path d="M14.933434,1.05962264 C13.5215094,-0.35290566 11.2229434,-0.353509434 9.81041509,1.05962264 L7.0354717,3.83456604 C6.91743396,3.95260377 6.91743396,4.14339623 7.0354717,4.26143396 C7.15350943,4.3794717 7.34430189,4.3794717 7.46233962,4.26143396 L10.237283,1.48649057 C10.8048302,0.918943396 11.5628679,0.606490566 12.3716226,0.606490566 C13.1809811,0.606490566 13.938717,0.919245283 14.5062642,1.48679245 C15.0738113,2.05433962 15.386566,2.81237736 15.386566,3.62143396 C15.386566,4.43049057 15.0738113,5.18822642 14.5062642,5.75577358 L10.8778868,9.3850566 C9.70113208,10.5618113 7.78535849,10.5618113 6.60830189,9.3850566 C6.49026415,9.26701887 6.2994717,9.26701887 6.18143396,9.3850566 C6.06339623,9.50309434 6.06339623,9.69388679 6.18143396,9.81192453 C6.88784906,10.5180377 7.81524528,10.8712453 8.7429434,10.8712453 C9.67064151,10.8712453 10.5983396,10.5180377 11.3044528,9.81192453 L14.933434,6.18264151 C15.6150943,5.50098113 15.9906415,4.59139623 15.9906415,3.62113208 C15.9906415,2.65086792 15.6150943,1.74128302 14.933434,1.05962264 L14.933434,1.05962264 Z" id="Shape"></path>
                    <path d="M8.10264151,12.1596981 L5.75456604,14.5077736 C5.18701887,15.0753208 4.42898113,15.3880755 3.61992453,15.3880755 C2.81086792,15.3880755 2.05313208,15.0753208 1.48528302,14.5077736 C0.308528302,13.3310189 0.308528302,11.4155472 1.48528302,10.2384906 L4.90083019,6.8229434 C6.07788679,5.64618868 7.99335849,5.64679245 9.17011321,6.8229434 C9.28815094,6.94098113 9.4789434,6.94098113 9.59698113,6.8229434 C9.71501887,6.70490566 9.71501887,6.51411321 9.59698113,6.39607547 C8.1850566,4.98354717 5.88649057,4.9829434 4.47396226,6.39607547 L1.05811321,9.81192453 C0.37645283,10.4935849 0.00120754717,11.4031698 0.00120754717,12.373434 C0.00120754717,13.3436981 0.376754717,14.253283 1.05841509,14.9346415 C1.74007547,15.616 2.64966038,15.9918491 3.61962264,15.9918491 C4.59018868,15.9918491 5.49977358,15.6163019 6.18113208,14.9346415 L8.52920755,12.586566 C8.64724528,12.4685283 8.64724528,12.2777358 8.52920755,12.1596981 C8.41116981,12.0416604 8.22067925,12.0419623 8.10264151,12.1596981 L8.10264151,12.1596981 Z" id="Shape"></path>
                </g>
            </g>
        </g>
    </g>
</svg>