<?xml version="1.0" encoding="UTF-8" standalone="no"?>
<svg width="16px" height="16px" viewBox="0 0 16 16" version="1.1" xmlns="http://www.w3.org/2000/svg" xmlns:xlink="http://www.w3.org/1999/xlink">
    <!-- Generator: Sketch 3.7.2 (28276) - http://www.bohemiancoding.com/sketch -->
    <title>logout</title>
    <desc>Created with Sketch.</desc>
    <defs></defs>
    <g id="Page-1" stroke="none" stroke-width="1" fill="none" fill-rule="evenodd">
        <g id="logout" fill="#000000">
            <g id="Layer_1">
                <g id="Group">
                    <path d="M3.46665625,6.9306875 C3.31946875,6.9306875 3.2,7.05015625 3.2,7.19734375 L3.2,8.79734375 C3.2,8.94453125 3.31946875,9.064 3.46665625,9.064 C3.61384375,9.064 3.7333125,8.94453125 3.7333125,8.79734375 L3.7333125,7.19734375 C3.73334375,7.05015625 3.613875,6.9306875 3.46665625,6.9306875 L3.46665625,6.9306875 Z" id="Shape"></path>
                    <path d="M3.49546875,0.072 L0.974125,1.0808125 C0.264,1.34375 0,1.7005625 0,2.39734375 L0,13.59975 C0,14.2965625 0.264,14.6533438 0.96746875,14.9141562 L3.50053125,15.9275 C3.625875,15.9749688 3.75171875,15.9989688 3.8749375,15.9989688 C4.4109375,15.9989688 4.8,15.5509688 4.8,14.933625 L4.8,1.06403125 C4.8,0.305625 4.1951875,-0.1914375 3.49546875,0.072 L3.49546875,0.072 Z M4.26665625,14.933625 C4.26665625,15.25175 4.1093125,15.465625 3.8749375,15.465625 C3.81653125,15.465625 3.75359375,15.4530937 3.69359375,15.4306875 L1.15946875,14.4165625 C0.65628125,14.2301563 0.53334375,14.069625 0.53334375,13.59975 L0.53334375,2.39734375 C0.53334375,1.92746875 0.65628125,1.76721875 1.165875,1.57840625 L3.68853125,0.56934375 C3.75359375,0.5448125 3.81625,0.53228125 3.87465625,0.53228125 C4.1090625,0.53228125 4.26665625,0.745875 4.26665625,1.06403125 L4.26665625,14.933625 L4.26665625,14.933625 Z" id="Shape"></path>
                    <path d="M5.56665625,1.59734375 L9.3333125,1.59734375 C9.774375,1.59734375 10.1333125,1.95628125 10.1333125,2.39734375 L10.1333125,6.39734375 C10.1333125,6.54453125 10.2525,6.664 10.3999688,6.664 C10.5474375,6.664 10.666625,6.54453125 10.666625,6.39734375 L10.666625,2.39734375 C10.666625,1.66215625 10.0685,1.064 9.33328125,1.064 L5.56665625,1.064 C5.41946875,1.064 5.3,1.18346875 5.3,1.33065625 C5.3,1.47784375 5.41946875,1.59734375 5.56665625,1.59734375 L5.56665625,1.59734375 Z" id="Shape"></path>
                    <path d="M10.4,9.3306875 C10.2525313,9.3306875 10.1333438,9.45015625 10.1333438,9.59734375 L10.1333438,13.5973438 C10.1333438,14.0384062 9.77440625,14.3973438 9.33334375,14.3973438 L5.6,14.3973438 C5.4528125,14.3973438 5.33334375,14.5168125 5.33334375,14.664 C5.33334375,14.8111875 5.4528125,14.9306563 5.6,14.9306563 L9.33334375,14.9306563 C10.0685312,14.9306563 10.6666875,14.3325313 10.6666875,13.5973125 L10.6666875,9.5973125 C10.6666563,9.45015625 10.5474688,9.3306875 10.4,9.3306875 L10.4,9.3306875 Z" id="Shape"></path>
                    <path d="M15.9794688,7.89546875 C15.965875,7.86265625 15.9464063,7.83334375 15.9215938,7.80853125 L13.2551875,5.141875 C13.1509063,5.037625 12.982375,5.037625 12.878125,5.141875 C12.7738438,5.24615625 12.7738438,5.4146875 12.878125,5.5189375 L15.0895938,7.73065625 L6.13334375,7.73065625 C5.98615625,7.73065625 5.8666875,7.850125 5.8666875,7.9973125 C5.8666875,8.1445 5.98615625,8.26396875 6.13334375,8.26396875 L15.089625,8.26396875 L12.878125,10.4754688 C12.7738438,10.57975 12.7738438,10.7482813 12.878125,10.8525312 C12.930125,10.9045312 12.9984063,10.9306562 13.0666563,10.9306562 C13.1349375,10.9306562 13.2031875,10.9045312 13.2551875,10.8525312 L15.9215938,8.186125 C15.9464063,8.1613125 15.965875,8.132 15.9794688,8.0991875 C16.0064063,8.03415625 16.0064063,7.9605625 15.9794688,7.89546875 L15.9794688,7.89546875 Z" id="Shape"></path>
                </g>
            </g>
        </g>
    </g>
</svg>