<?xml version="1.0" encoding="UTF-8" standalone="no"?>
<svg width="16px" height="16px" viewBox="0 0 16 16" version="1.1" xmlns="http://www.w3.org/2000/svg" xmlns:xlink="http://www.w3.org/1999/xlink">
    <!-- Generator: Sketch 3.7.2 (28276) - http://www.bohemiancoding.com/sketch -->
    <title>key</title>
    <desc>Created with Sketch.</desc>
    <defs></defs>
    <g id="Page-1" stroke="none" stroke-width="1" fill="none" fill-rule="evenodd">
        <g id="key" fill="#000000">
            <g id="Layer_1">
                <g id="Group">
                    <path d="M11.593875,4.43228125 L7.55571875,0.39440625 C7.304,0.1426875 6.9690625,0.004 6.6130625,0.004 C6.25678125,0.004 5.922125,0.14265625 5.67040625,0.39440625 L0.39065625,5.674125 C0.13865625,5.925875 0,6.26053125 0,6.6168125 C0,6.97309375 0.13865625,7.30775 0.39065625,7.55975 L3.206375,10.37575 C3.20265625,10.5549375 3.19996875,10.7384063 3.19996875,10.9293437 C3.19996875,12.0546875 3.19996875,13.596 4.266625,13.596 C5.1418125,13.596 5.33328125,12.9162813 5.33328125,12.6544063 C5.33328125,12.5085313 5.21621875,12.39175 5.07034375,12.3895938 C4.93140625,12.3829375 4.80421875,12.5047813 4.7999375,12.6506563 C4.79753125,12.7474688 4.750875,13.0626563 4.26659375,13.0626563 C3.73325,13.0626563 3.73325,11.7786563 3.73325,10.9293125 C3.73325,5.9954375 5.11859375,5.33065625 5.1580625,5.31303125 C5.29325,5.26396875 5.36553125,5.1156875 5.31965625,4.97809375 C5.273,4.838625 5.1223125,4.762375 4.9823125,4.8095625 C4.9124375,4.83275 4.63565625,4.94875 4.3201875,5.38209375 C4.28684375,5.28503125 4.26659375,5.1775625 4.26659375,5.062625 C4.26659375,4.62128125 4.62553125,4.262625 5.06659375,4.262625 C5.5079375,4.262625 5.86659375,4.62128125 5.86659375,5.062625 C5.86659375,5.42928125 5.618875,5.74821875 5.2639375,5.83809375 C5.12128125,5.874375 5.034875,6.0194375 5.071125,6.16209375 C5.10153125,6.28290625 5.2100625,6.36315625 5.32925,6.36315625 C5.35084375,6.36315625 5.37296875,6.3605 5.39484375,6.354875 C5.98684375,6.205 6.39990625,5.67353125 6.39990625,5.06259375 C6.39990625,4.32740625 5.80178125,3.72925 5.0665625,3.72925 C4.331625,3.72925 3.73321875,4.327375 3.73321875,5.06259375 C3.73321875,5.387125 3.83321875,5.6839375 4.0065625,5.91246875 C3.6623125,6.62046875 3.33721875,7.775125 3.23428125,9.64928125 L0.767625,7.18234375 C0.6164375,7.03140625 0.53321875,6.830625 0.53321875,6.61675 C0.53321875,6.40315625 0.61640625,6.20234375 0.767625,6.05115625 L6.04746875,0.77146875 C6.34959375,0.4690625 6.87653125,0.46934375 7.17865625,0.77146875 L11.2167813,4.80934375 C11.5285,5.12134375 11.5285,5.6288125 11.2167813,5.9408125 L5.9370625,11.2205313 C5.6349375,11.5224063 5.10771875,11.5226563 4.80559375,11.2205313 L4.66771875,11.0824063 C4.5634375,10.9784063 4.39465625,10.9784063 4.29065625,11.0824063 C4.186375,11.1866563 4.186375,11.3554688 4.29065625,11.45975 L4.42853125,11.597625 C4.68025,11.8493438 5.0151875,11.9880313 5.3711875,11.9880313 C5.72746875,11.9880313 6.062125,11.849375 6.314125,11.597625 L11.5938437,6.31790625 C12.1135937,5.798125 12.1135937,4.952 11.593875,4.43228125 L11.593875,4.43228125 Z" id="Shape"></path>
                    <path d="M9.678125,9.517875 L14.478125,14.317875 C14.5304062,14.369875 14.5986562,14.396 14.6666562,14.396 C14.7349375,14.396 14.8031875,14.369875 14.8551875,14.317875 C14.9594375,14.2135938 14.9594375,14.0448125 14.8551875,13.9408125 L10.0551875,9.1408125 C9.9511875,9.03653125 9.782375,9.03653125 9.678125,9.1408125 C9.574125,9.2448125 9.574125,9.41359375 9.678125,9.517875 L9.678125,9.517875 Z" id="Shape"></path>
                    <path d="M15.921875,12.874125 L11.121875,8.074125 C11.017875,7.969875 10.8490625,7.969875 10.7448125,8.074125 C10.6408125,8.178125 10.6408125,8.3469375 10.7448125,8.4511875 L15.4666875,13.1730625 L15.4666875,15.4626562 L13.3333437,15.4626562 L13.3333437,14.6626562 C13.3333437,14.5154687 13.2141562,14.396 13.0666875,14.396 L12.2666875,14.396 L12.2666875,13.596 C12.2666875,13.4488125 12.1475,13.3293437 12.0000312,13.3293437 L11.2000312,13.3293437 L11.2000312,12.5293437 C11.2000312,12.3821562 11.0808437,12.2626875 10.933375,12.2626875 L9.977375,12.2626875 L8.45525,10.7408125 C8.35125,10.6365312 8.1824375,10.6365312 8.0781875,10.7408125 C7.9741875,10.8448125 7.9741875,11.013625 8.0781875,11.117875 L9.6781875,12.717875 C9.7283125,12.76775 9.7960625,12.796 9.86671875,12.796 L10.6667187,12.796 L10.6667187,13.596 C10.6667187,13.7431875 10.7861875,13.8626562 10.933375,13.8626562 L11.733375,13.8626562 L11.733375,14.6626562 C11.733375,14.8098437 11.8528437,14.9293125 12.0000312,14.9293125 L12.8000312,14.9293125 L12.8000312,15.7293125 C12.8000312,15.8765 12.9195,15.9959687 13.0666875,15.9959687 L15.7333437,15.9959687 C15.8808125,15.9959687 16,15.8765 16,15.7293125 L16,13.0626562 C16,12.992 15.972,12.924 15.921875,12.874125 L15.921875,12.874125 Z" id="Shape"></path>
                </g>
            </g>
        </g>
    </g>
</svg>