<?xml version="1.0" encoding="UTF-8" standalone="no"?>
<svg width="21px" height="16px" viewBox="0 0 21 16" version="1.1" xmlns="http://www.w3.org/2000/svg" xmlns:xlink="http://www.w3.org/1999/xlink">
    <!-- Generator: Sketch 3.7.2 (28276) - http://www.bohemiancoding.com/sketch -->
    <title>controls</title>
    <desc>Created with Sketch.</desc>
    <defs></defs>
    <g id="Page-1" stroke="none" stroke-width="1" fill="none" fill-rule="evenodd">
        <g id="controls" fill="#000000">
            <g id="Capa_1">
                <g id="Group">
                    <path d="M2.63822222,5.27644444 C3.96449422,5.27644444 5.06237156,4.29125689 5.24629333,3.01511111 L19.9751111,3.01511111 C20.1835307,3.01511111 20.352,2.84664178 20.352,2.63822222 C20.352,2.42980267 20.1835307,2.26133333 19.9751111,2.26133333 L5.24629333,2.26133333 C5.06237156,0.985187556 3.96449422,0 2.63822222,0 C1.18343111,0 0,1.183808 0,2.63822222 C0,4.09263644 1.18343111,5.27644444 2.63822222,5.27644444 L2.63822222,5.27644444 Z M2.63822222,0.753777778 C3.67730489,0.753777778 4.52266667,1.59913956 4.52266667,2.63822222 C4.52266667,3.67730489 3.67730489,4.52266667 2.63822222,4.52266667 C1.59913956,4.52266667 0.753777778,3.67730489 0.753777778,2.63822222 C0.753777778,1.59913956 1.59913956,0.753777778 2.63822222,0.753777778 L2.63822222,0.753777778 Z" id="Shape"></path>
                    <path d="M17.7137778,10.7093333 C16.3875058,10.7093333 15.2896284,11.6945209 15.1057067,12.9706667 L0.376888889,12.9706667 C0.168846222,12.9706667 0,13.139136 0,13.3475556 C0,13.5559751 0.168846222,13.7244444 0.376888889,13.7244444 L15.1057067,13.7244444 C15.2896284,15.0005902 16.3875058,15.9857778 17.7137778,15.9857778 C19.168192,15.9857778 20.352,14.8019698 20.352,13.3475556 C20.352,11.8931413 19.168192,10.7093333 17.7137778,10.7093333 L17.7137778,10.7093333 Z M17.7137778,15.232 C16.6746951,15.232 15.8293333,14.3866382 15.8293333,13.3475556 C15.8293333,12.3084729 16.6746951,11.4631111 17.7137778,11.4631111 C18.7528604,11.4631111 19.5982222,12.3084729 19.5982222,13.3475556 C19.5982222,14.3866382 18.7528604,15.232 17.7137778,15.232 L17.7137778,15.232 Z" id="Shape"></path>
                    <path d="M19.9751111,7.616 L12.9529173,7.616 C12.8036693,6.25844622 11.6507662,5.19863467 10.254016,5.19863467 C8.85726578,5.19863467 7.70436267,6.25882311 7.55511467,7.616 L0.376888889,7.616 C0.168846222,7.616 0,7.78446933 0,7.99288889 C0,8.20130844 0.168846222,8.36977778 0.376888889,8.36977778 L7.57885867,8.36977778 C7.79632356,9.6512 8.91153778,10.6311111 10.254016,10.6311111 C11.5964942,10.6311111 12.7113316,9.6512 12.9287964,8.36977778 L19.9751111,8.36977778 C20.1835307,8.36977778 20.352,8.20130844 20.352,7.99288889 C20.352,7.78446933 20.1835307,7.616 19.9751111,7.616 L19.9751111,7.616 Z M10.254016,9.87733333 C9.171968,9.87733333 8.29155556,8.99692089 8.29155556,7.91487289 C8.29155556,6.83282489 9.171968,5.95241244 10.254016,5.95241244 C11.336064,5.95241244 12.2164764,6.83282489 12.2164764,7.91487289 C12.2164764,8.99692089 11.336064,9.87733333 10.254016,9.87733333 L10.254016,9.87733333 Z" id="Shape"></path>
                </g>
            </g>
        </g>
    </g>
</svg>