<?xml version="1.0" encoding="UTF-8" standalone="no"?>
<svg width="47px" height="48px" viewBox="0 0 47 48" version="1.1" xmlns="http://www.w3.org/2000/svg" xmlns:xlink="http://www.w3.org/1999/xlink">
    <!-- Generator: Sketch 3.7.2 (28276) - http://www.bohemiancoding.com/sketch -->
    <title>car-dashboard</title>
    <desc>Created with Sketch.</desc>
    <defs></defs>
    <g id="Page-1" stroke="none" stroke-width="1" fill="none" fill-rule="evenodd">
        <g id="car-dashboard" fill="#000000">
            <g id="Capa_1">
                <path d="M37.9130414,22.7309822 L37.9173018,22.7309822 C38.6232426,22.7309822 39.1954083,23.3031479 39.1954083,24.0090888 C39.1954083,24.7150296 38.6232426,25.2871953 37.9173018,25.2871953 C37.2113609,25.2871953 36.6370651,24.7150296 36.6370651,24.0090888 C36.6370651,23.3031479 37.2071006,22.7309822 37.9130414,22.7309822 L37.9130414,22.7309822 Z M33.1907219,13.0842604 L33.1873136,13.0872426 C32.6574675,13.5536095 32.6074793,14.3596686 33.0738462,14.8895148 C33.3260592,15.1762367 33.6788166,15.3223669 34.0332781,15.3223669 C34.3340592,15.3223669 34.6362604,15.2171361 34.8793846,15.0029822 C35.4092308,14.5366154 35.4609231,13.7289941 34.9946982,13.1991479 C34.5283314,12.6695858 33.720568,12.6178935 33.1907219,13.0842604 L33.1907219,13.0842604 Z M36.4861065,17.6344615 L36.4822722,17.6360237 C35.8291598,17.904284 35.5192899,18.6501302 35.7874083,19.3031006 C35.9903432,19.7970178 36.467929,20.0953846 36.9712189,20.0953846 C37.1333964,20.0953846 37.2981302,20.064426 37.4571834,19.9991006 C38.1102959,19.7309822 38.4221538,18.984284 38.1538935,18.3311716 C37.8856331,17.6780592 37.1387929,17.3660592 36.4861065,17.6344615 L36.4861065,17.6344615 Z M44.7198107,15.9456568 C43.2497041,12.3513373 40.8884734,9.16501775 37.8910296,6.73093491 C37.3428639,6.28601183 36.5379408,6.3696568 36.0931598,6.91739645 C35.6480947,7.46527811 35.7315976,8.27020118 36.2796213,8.71526627 C38.9453254,10.8798107 41.0458225,13.7146509 42.3538935,16.9133254 C44.4410414,22.0149586 44.4166154,27.623716 42.2851598,32.7067456 C40.1535621,37.7896331 36.1701302,41.7382722 31.068497,43.8251361 C25.9670059,45.912142 20.3582485,45.887716 15.2750769,43.7562604 C10.1920473,41.6246627 6.24326627,37.6412308 4.15654438,32.5397396 C2.06953846,27.4382485 2.09410651,21.8293491 4.22556213,16.7463195 C6.35715976,11.6632899 10.3405917,7.71465089 15.4420828,5.62764497 C18.768284,4.2671716 22.3976805,3.79512426 25.9376095,4.2623432 C26.6344615,4.35493491 27.2796213,3.86243787 27.372071,3.16246154 C27.4643787,2.46262722 26.9720237,1.8204497 26.2721893,1.72814201 C22.2913136,1.20227219 18.2117396,1.7328284 14.4744142,3.2615858 C8.7408284,5.60719527 4.26390533,10.0449231 1.86816568,15.7576331 C-0.527573964,21.4704852 -0.55512426,27.7741065 1.79048521,33.5076923 C4.13595266,39.2411361 8.57368047,43.7180592 14.2863905,46.1136568 C17.1744852,47.3247337 20.2132544,47.9305562 23.2535858,47.9305562 C26.2270296,47.9305562 29.2014675,47.3508639 32.0363077,46.1911953 C37.7698935,43.8457278 42.2468166,39.407858 44.6425562,33.6952899 C47.0380118,27.9825799 47.0654201,21.6789586 44.7198107,15.9456568 L44.7198107,15.9456568 Z M14.1989112,30.9862722 L32.3005917,30.9862722 C33.0065325,30.9862722 33.5786982,30.4141065 33.5786982,29.7081657 C33.5786982,29.0022249 33.0065325,28.4300592 32.3005917,28.4300592 L14.1989112,28.4300592 C13.4929704,28.4300592 12.9208047,29.0022249 12.9208047,29.7081657 C12.9208047,30.4141065 13.4929704,30.9862722 14.1989112,30.9862722 L14.1989112,30.9862722 Z M22.7228876,25.1693254 C22.8938698,25.2467219 23.0729467,25.283503 23.2493254,25.283503 C23.735716,25.283503 24.2005207,25.0043077 24.4142485,24.5322604 L34.7048521,1.80568047 C34.9961183,1.16265089 34.7108166,0.405301775 34.067787,0.114177515 C33.4251834,-0.177088757 32.6676923,0.107928994 32.376426,0.751242604 L22.0858225,23.4776805 C21.7945562,24.1207101 22.079858,24.8780592 22.7228876,25.1693254 L22.7228876,25.1693254 Z M23.8246154,10.5808757 C24.5356686,10.6172308 25.128,10.0686391 25.1606627,9.3635503 C25.1933254,8.65846154 24.648426,8.06016568 23.9433373,8.02750296 C23.6909822,8.01571598 23.436213,8.00975148 23.1861302,8.00975148 C14.364213,8.00975148 7.18707692,15.1870296 7.18707692,24.0090888 C7.18707692,24.7150296 7.7592426,25.2871953 8.46518343,25.2871953 C9.17112426,25.2871953 9.74328994,24.7150296 9.74328994,24.0090888 C9.74328994,16.3858935 16.1169231,10.2210178 23.8246154,10.5808757 L23.8246154,10.5808757 Z" id="Shape"></path>
            </g>
        </g>
    </g>
</svg>