<?xml version="1.0" encoding="UTF-8" standalone="no"?>
<svg width="48px" height="48px" viewBox="0 0 48 48" version="1.1" xmlns="http://www.w3.org/2000/svg" xmlns:xlink="http://www.w3.org/1999/xlink">
    <!-- Generator: Sketch 3.7.2 (28276) - http://www.bohemiancoding.com/sketch -->
    <title>dashboard</title>
    <desc>Created with Sketch.</desc>
    <defs></defs>
    <g id="Page-1" stroke="none" stroke-width="1" fill="none" fill-rule="evenodd">
        <g id="dashboard" fill="#000000">
            <g id="Layer_1">
                <g id="Group" transform="translate(0.000000, 0.064403)">
                    <g id="Shape">
                        <g>
                            <path d="M47.8005535,23.6566541 C47.7603019,17.3270943 45.2345157,11.3698616 40.6760252,6.90193711 C36.0873459,2.39376101 30.0294843,-0.0414591195 23.6194214,0.0390440252 C10.4370314,0.200050314 -0.159194969,11.0478491 0.00181132075,24.2201761 C0.0823144654,30.6101132 2.63828931,36.5874717 7.19677987,41.0453333 C11.6948931,45.4327547 17.6018113,47.8377862 23.8810566,47.8377862 L24.1829434,47.8377862 C30.5326289,47.7975346 36.4898616,45.2717484 40.9477233,40.7333836 C45.4458365,36.1547673 47.8810566,30.0868428 47.8005535,23.6566541 L47.8005535,23.6566541 Z M39.8709937,39.666717 C35.6948931,43.9233208 30.1200503,46.2780377 24.1628176,46.3182893 C18.1854591,46.3887296 12.5301132,44.1346415 8.25338365,39.9585409 C3.97665409,35.7925031 1.58168553,30.1874717 1.51124528,24.2000503 C1.36030189,11.8629434 11.2823145,1.69942138 23.6395472,1.54847799 L23.9213082,1.54847799 C29.8181635,1.54847799 35.3930063,3.82269182 39.6194214,7.97866667 C43.8860881,12.1648302 46.2508679,17.739673 46.2911195,23.666717 C46.3615597,29.6943899 44.0873459,35.3799245 39.8709937,39.666717 L39.8709937,39.666717 Z"></path>
                            <path d="M34.4672201,7.08306918 C31.2974088,5.09061635 27.6345157,4.03401258 23.8911195,4.03401258 C20.1477233,4.03401258 16.4948931,5.09061635 13.3150189,7.08306918 C10.1351447,9.07552201 7.5892327,11.9233208 5.95904403,15.3044528 C5.77791195,15.6767799 5.93891824,16.1296101 6.31124528,16.3107421 C6.68357233,16.4918742 7.13640252,16.3308679 7.31753459,15.9585409 C10.3766541,9.62898113 16.877283,5.53338365 23.8911195,5.53338365 C30.904956,5.53338365 37.4156478,9.62898113 40.4647044,15.9585409 C40.595522,16.2201761 40.8672201,16.3811824 41.1489811,16.3811824 L41.1489811,16.3811824 C41.259673,16.3811824 41.3703648,16.3610566 41.4709937,16.3107421 C41.8433208,16.1296101 42.004327,15.6767799 41.823195,15.3044528 C40.1829434,11.9233208 37.6470943,9.08558491 34.4672201,7.08306918 L34.4672201,7.08306918 Z"></path>
                            <path d="M31.4081006,15.284327 L23.5992956,23.0931321 C23.3074717,23.384956 23.3074717,23.8679748 23.5992956,24.1597987 C23.750239,24.3107421 23.941434,24.3811824 24.1326289,24.3811824 C24.3338868,24.3811824 24.5250818,24.3107421 24.6659623,24.1597987 L32.4747673,16.3509937 C32.7665912,16.0591698 32.7665912,15.5761509 32.4747673,15.284327 C32.1829434,14.9925031 31.6999245,14.9925031 31.4081006,15.284327 L31.4081006,15.284327 Z"></path>
                            <path d="M27.8760252,23.1836981 C27.4634465,23.1836981 27.1213082,23.5258365 27.1213082,23.9384151 C27.1213082,25.6792956 25.7024403,27.0981635 23.8810566,27.1686038 C22.1099874,27.1585409 20.6709937,25.7497358 20.6709937,24.0189182 L20.6709937,23.9887296 C20.640805,23.1233208 20.9628176,22.2679748 21.5665912,21.6440755 C22.150239,21.0403019 22.9150189,20.7082264 23.7401761,20.7082264 C24.1527547,20.7082264 24.4948931,20.3660881 24.4948931,19.9535094 C24.4948931,19.5409308 24.1527547,19.1987925 23.7401761,19.1987925 C22.5024403,19.1987925 21.3452075,19.7019371 20.4797987,20.5975346 C19.604327,21.5132579 19.1213082,22.7610566 19.1615597,24.0289811 C19.1716226,26.5950189 21.2948931,28.6780377 23.9011824,28.6780377 L23.9011824,28.6780377 L23.9213082,28.6780377 C26.5577862,28.5774088 28.6307421,26.4943899 28.6307421,23.9384151 C28.6307421,23.5258365 28.2886038,23.1836981 27.8760252,23.1836981 L27.8760252,23.1836981 Z"></path>
                        </g>
                    </g>
                </g>
            </g>
        </g>
    </g>
</svg>