<?xml version="1.0" encoding="UTF-8" standalone="no"?>
<svg width="34px" height="48px" viewBox="0 0 34 48" version="1.1" xmlns="http://www.w3.org/2000/svg" xmlns:xlink="http://www.w3.org/1999/xlink">
    <!-- Generator: Sketch 3.7.2 (28276) - http://www.bohemiancoding.com/sketch -->
    <title>locked</title>
    <desc>Created with Sketch.</desc>
    <defs></defs>
    <g id="Page-1" stroke="none" stroke-width="1" fill="none" fill-rule="evenodd">
        <g id="locked" fill="#000000">
            <g id="Capa_1">
                <g id="Group">
                    <path d="M16.5517241,24.8275862 C14.726069,24.8275862 13.2413793,26.3122759 13.2413793,28.137931 L13.2413793,33.1034483 C13.2413793,34.9291034 14.726069,36.4137931 16.5517241,36.4137931 C18.3773793,36.4137931 19.862069,34.9291034 19.862069,33.1034483 L19.862069,28.137931 C19.862069,26.3122759 18.3773793,24.8275862 16.5517241,24.8275862 L16.5517241,24.8275862 Z M18.2068966,33.1034483 C18.2068966,34.0162759 17.4645517,34.7586207 16.5517241,34.7586207 C15.6388966,34.7586207 14.8965517,34.0162759 14.8965517,33.1034483 L14.8965517,28.137931 C14.8965517,27.2251034 15.6388966,26.4827586 16.5517241,26.4827586 C17.4645517,26.4827586 18.2068966,27.2251034 18.2068966,28.137931 L18.2068966,33.1034483 L18.2068966,33.1034483 Z" id="Shape"></path>
                    <path d="M25.6551724,17.6391724 L25.6551724,8.45793103 C25.6551724,3.79448276 21.5710345,0 16.5517241,0 C11.5324138,0 7.44827586,3.79448276 7.44827586,8.45793103 L7.44827586,17.6391724 C2.96606897,20.6035862 0,25.6833103 0,31.4482759 C0,40.5748966 7.42510345,48 16.5517241,48 C25.6783448,48 33.1034483,40.5748966 33.1034483,31.4482759 C33.1034483,25.6833103 30.1373793,20.6035862 25.6551724,17.6391724 L25.6551724,17.6391724 Z M9.10344828,16.6816552 L9.10344828,8.45793103 C9.10344828,4.70731034 12.4444138,1.65517241 16.5517241,1.65517241 C20.6590345,1.65517241 24,4.70731034 24,8.45793103 L24,16.6824828 C23.8444138,16.6038621 23.6855172,16.5343448 23.5282759,16.4606897 C23.2030345,16.3084138 22.8728276,16.166069 22.5368276,16.0344828 C22.3208276,15.950069 22.104,15.8706207 21.8855172,15.7953103 C21.6703448,15.7216552 21.4568276,15.648 21.2383448,15.5834483 C20.8766897,15.4758621 20.5108966,15.384 20.1426207,15.3012414 C19.9828966,15.2656552 19.8223448,15.2317241 19.6609655,15.2002759 C19.2281379,15.1166897 18.7928276,15.0488276 18.3542069,15 C18.2548966,14.9892414 18.1555862,14.9826207 18.0562759,14.9735172 C17.5555862,14.9263448 17.0548966,14.8965517 16.5517241,14.8965517 C16.0485517,14.8965517 15.5478621,14.9263448 15.0488276,14.9726897 C14.9495172,14.9817931 14.8493793,14.9884138 14.7508966,14.9991724 C14.3122759,15.048 13.8769655,15.1158621 13.4441379,15.1994483 C13.2827586,15.230069 13.1222069,15.2648276 12.9624828,15.3004138 C12.5942069,15.3831724 12.2284138,15.4750345 11.8667586,15.5826207 C11.6482759,15.6471724 11.433931,15.7216552 11.2195862,15.7944828 C11.0011034,15.8697931 10.7834483,15.9492414 10.5682759,16.0336552 C10.2314483,16.1644138 9.90206897,16.3075862 9.57682759,16.4598621 C9.41793103,16.5335172 9.25903448,16.6030345 9.10344828,16.6816552 L9.10344828,16.6816552 Z M16.5517241,46.3448276 C8.33793103,46.3448276 1.65517241,39.662069 1.65517241,31.4482759 C1.65517241,26.0383448 4.56413793,21.3062069 8.89075862,18.6968276 C9.65213793,18.2383448 10.4474483,17.8518621 11.2684138,17.5373793 C11.414069,17.481931 11.5605517,17.4273103 11.7078621,17.376 C11.9337931,17.2973793 12.1605517,17.222069 12.3897931,17.1542069 C12.6711724,17.0722759 12.9566897,16.9994483 13.2446897,16.934069 C13.4548966,16.886069 13.665931,16.8438621 13.8777931,16.8049655 C14.1831724,16.7495172 14.4910345,16.6998621 14.8030345,16.6634483 C14.9437241,16.646069 15.0852414,16.6311724 15.2267586,16.6187586 C15.6645517,16.5798621 16.1048276,16.5517241 16.5517241,16.5517241 C16.9986207,16.5517241 17.4388966,16.5798621 17.8766897,16.6187586 C18.0182069,16.632 18.1588966,16.6468966 18.3004138,16.6634483 C18.6124138,16.6998621 18.9202759,16.7495172 19.2256552,16.8049655 C19.4375172,16.8438621 19.6485517,16.886069 19.8587586,16.934069 C20.1467586,16.9994483 20.4322759,17.0722759 20.7136552,17.1542069 C20.9428966,17.2212414 21.1696552,17.2973793 21.3955862,17.376 C21.5437241,17.4273103 21.6893793,17.481931 21.8350345,17.5373793 C22.656,17.8518621 23.4513103,18.2383448 24.2126897,18.6968276 C28.5393103,21.3062069 31.4482759,26.0383448 31.4482759,31.4482759 C31.4482759,39.662069 24.7655172,46.3448276 16.5517241,46.3448276 L16.5517241,46.3448276 Z" id="Shape"></path>
                </g>
            </g>
        </g>
    </g>
</svg>