<?xml version="1.0" encoding="UTF-8" standalone="no"?>
<svg width="64px" height="48px" viewBox="0 0 64 48" version="1.1" xmlns="http://www.w3.org/2000/svg" xmlns:xlink="http://www.w3.org/1999/xlink">
    <!-- Generator: Sketch 3.8.1 (29687) - http://www.bohemiancoding.com/sketch -->
    <title>mail</title>
    <desc>Created with Sketch.</desc>
    <defs></defs>
    <g id="Page-1" stroke="none" stroke-width="1" fill="none" fill-rule="evenodd">
        <g id="Desktop" transform="translate(-907.000000, -475.000000)" fill="#000000">
            <g id="mail" transform="translate(907.000000, 475.000000)">
                <g id="Capa_1">
                    <path d="M58.988764,0.0404494382 L4.92134831,0.0404494382 C2.21123596,0.0404494382 0,2.25168539 0,4.96179775 L0,43.0382022 C0,45.7483146 2.21123596,47.9595506 4.92134831,47.9595506 L58.988764,47.9595506 C61.6988764,47.9595506 63.9101124,45.7483146 63.9101124,43.0382022 L63.9101124,4.96179775 C63.9101124,2.25168539 61.6988764,0.0404494382 58.988764,0.0404494382 L58.988764,0.0404494382 Z M58.2741573,3.68089888 L32.2921348,25.9011236 L6.31011236,3.68089888 L58.2741573,3.68089888 L58.2741573,3.68089888 Z M60.2696629,43.0382022 C60.2696629,43.7393258 59.6898876,44.3191011 58.988764,44.3191011 L4.92134831,44.3191011 C4.22022472,44.3191011 3.64044944,43.7393258 3.64044944,43.0382022 L3.64044944,6.18876404 L31.105618,29.6764045 C31.1191011,29.6898876 31.1460674,29.7033708 31.1595506,29.7168539 C31.1730337,29.7303371 31.2,29.7438202 31.2134831,29.7573034 C31.2539326,29.7842697 31.2808989,29.811236 31.3213483,29.8247191 C31.3348315,29.8382022 31.3483146,29.8382022 31.3617978,29.8516854 C31.4157303,29.8786517 31.4696629,29.905618 31.5235955,29.9325843 C31.5370787,29.9325843 31.5505618,29.9460674 31.5640449,29.9460674 C31.6044944,29.9595506 31.6449438,29.9865169 31.6988764,30 C31.7123596,30 31.7393258,30.0134831 31.752809,30.0134831 C31.7932584,30.0269663 31.8337079,30.0404494 31.8741573,30.0404494 C31.8876404,30.0404494 31.9146067,30.0539326 31.9280899,30.0539326 C31.9685393,30.0674157 32.0224719,30.0674157 32.0629213,30.0808989 L32.1033708,30.0808989 C32.1573034,30.0808989 32.2247191,30.094382 32.2786517,30.094382 L32.2786517,30.094382 L32.2786517,30.094382 C32.3325843,30.094382 32.4,30.094382 32.4539326,30.0808989 L32.494382,30.0808989 C32.5348315,30.0808989 32.588764,30.0674157 32.6292135,30.0539326 C32.6426966,30.0539326 32.6696629,30.0404494 32.6831461,30.0404494 C32.7235955,30.0269663 32.7640449,30.0134831 32.8044944,30.0134831 C32.8179775,30.0134831 32.8449438,30 32.858427,30 C32.8988764,29.9865169 32.9393258,29.9730337 32.9932584,29.9460674 C33.0067416,29.9460674 33.0202247,29.9325843 33.0337079,29.9325843 C33.0876404,29.905618 33.141573,29.8786517 33.1955056,29.8516854 C33.2089888,29.8382022 33.2224719,29.8382022 33.2359551,29.8247191 C33.2764045,29.7977528 33.3033708,29.7842697 33.3438202,29.7573034 C33.3573034,29.7438202 33.3842697,29.7303371 33.3977528,29.7168539 C33.411236,29.7033708 33.4382022,29.6898876 33.4516854,29.6764045 L60.2696629,6.76853933 L60.2696629,43.0382022 L60.2696629,43.0382022 Z" id="Shape"></path>
                </g>
            </g>
        </g>
    </g>
</svg>