<?xml version="1.0" encoding="UTF-8" standalone="no"?>
<svg width="48px" height="48px" viewBox="0 0 48 48" version="1.1" xmlns="http://www.w3.org/2000/svg" xmlns:xlink="http://www.w3.org/1999/xlink">
    <!-- Generator: Sketch 3.7.2 (28276) - http://www.bohemiancoding.com/sketch -->
    <title>mailbox</title>
    <desc>Created with Sketch.</desc>
    <defs></defs>
    <g id="Page-1" stroke="none" stroke-width="1" fill="none" fill-rule="evenodd">
        <g id="mailbox" fill="#000000">
            <g id="Layer_1">
                <g id="Group">
                    <path d="M21.9575625,22.4839688 L20.3575313,21.684 C19.9615313,21.4872188 19.4822812,21.6471563 19.2839063,22.0424063 C19.0862812,22.4375625 19.2470625,22.9175625 19.6423125,23.1151875 L21.2423438,23.916 C21.3567188,23.9728125 21.4791563,24 21.5991563,24 C21.8927813,24 22.1751563,23.838375 22.3159688,23.5575938 C22.5135938,23.1624375 22.3528125,22.6815938 21.9575625,22.4839688 L21.9575625,22.4839688 Z" id="Shape"></path>
                    <path d="M24.7999688,33.6 C24.3584063,33.6 24,33.9584062 24,34.3999687 L24,47.1999375 C24,47.6415 24.3584062,47.9999062 24.7999688,47.9999062 C25.2415313,47.9999062 25.5999375,47.6415 25.5999375,47.1999375 L25.5999375,34.3999687 C25.6000313,33.9584062 25.241625,33.6 24.7999688,33.6 L24.7999688,33.6 Z" id="Shape"></path>
                    <path d="M13.9704375,21.7247812 L9.6208125,24.492 C9.24796875,24.7288125 9.137625,25.2231562 9.3751875,25.596 C9.52715625,25.836 9.786375,25.9664062 10.0512187,25.9664062 C10.1976562,25.9664062 10.3464375,25.926375 10.4791875,25.841625 L14.8295625,23.07525 C15.2024062,22.8376875 15.312,22.34325 15.0751875,21.9704062 C14.837625,21.5975625 14.3431875,21.4879688 13.9704375,21.7247812 L13.9704375,21.7247812 Z" id="Shape"></path>
                    <path d="M8.80003125,12.7999687 L21.6,12.7999687 C22.0415625,12.7999687 22.3999687,12.4415625 22.3999687,12 C22.3999687,11.5584375 22.0415625,11.2000312 21.6,11.2000312 L8.80003125,11.2000312 C7.47684375,11.2000312 6.40003125,12.2768437 6.40003125,13.6000312 L6.40003125,26.4 C6.40003125,27.7231875 7.47684375,28.8 8.80003125,28.8 L21.6,28.8 C22.0415625,28.8 22.3999687,28.4415938 22.3999687,28.0000313 C22.3999687,27.5584687 22.0415625,27.2000625 21.6,27.2000625 L8.80003125,27.2000625 C8.35921875,27.2000625 8.0000625,26.8409062 8.0000625,26.4000937 L8.0000625,15.1999688 L16.3200938,21.4399687 C16.4616563,21.546375 16.63125,21.6 16.8000938,21.6 C16.9545,21.6 17.1089063,21.5551875 17.2440938,21.4655625 L22.0440938,18.2655938 C22.4113125,18.0208125 22.5105,17.5240313 22.2657187,17.1559687 C22.0200938,16.78875 21.5233125,16.6879687 21.1560938,16.9343437 L16.8272812,19.8199687 L8.08171875,13.2615937 C8.2104375,12.990375 8.4815625,12.7999687 8.80003125,12.7999687 L8.80003125,12.7999687 Z" id="Shape"></path>
                    <path d="M28.0000312,33.6 C27.5584687,33.6 27.2000625,33.9584062 27.2000625,34.3999687 L27.2000625,47.1999375 C27.2000625,47.6415 27.5584687,47.9999062 28.0000312,47.9999062 C28.4415937,47.9999062 28.8,47.6415 28.8,47.1999375 L28.8,34.3999687 C28.8,33.9584062 28.4415937,33.6 28.0000312,33.6 L28.0000312,33.6 Z" id="Shape"></path>
                    <path d="M35.2000313,0 L12.7999687,0 C5.742375,0 0,5.742375 0,12.7999687 L0,31.2 C0,31.6415625 0.35840625,31.9999688 0.79996875,31.9999688 L21.6,31.9999688 C22.0415625,31.9999688 22.3999687,31.6415625 22.3999687,31.2 C22.3999687,30.7584375 22.0415625,30.4000312 21.6,30.4000312 L1.60003125,30.4000312 L1.60003125,12.7999687 C1.60003125,6.624 6.624,1.5999375 12.8000625,1.5999375 C18.8712188,1.60003125 24,6.3624375 24,12 L24,31.2 C24,31.6415625 24.3584062,31.9999688 24.7999688,31.9999688 L47.1999375,31.9999688 C47.6415,31.9999688 47.9999063,31.6415625 47.9999063,31.2 L47.9999063,12.7999687 C48,5.742375 42.257625,0 35.2000313,0 L35.2000313,0 Z M46.3999687,30.4000312 L25.6000313,30.4000312 L25.6000313,12 C25.6000313,7.6175625 22.9400625,3.69440625 19.0831875,1.60003125 L35.2000312,1.60003125 C41.376,1.60003125 46.4000625,6.624 46.4000625,12.8000625 L46.4000625,30.4000312 L46.3999687,30.4000312 Z" id="Shape"></path>
                    <path d="M40.0000312,16.1472188 L40.0000312,5.59996875 C40.0000312,5.15840625 39.641625,4.8 39.2000625,4.8 L28.0000312,4.8 C27.5584687,4.8 27.2000625,5.15840625 27.2000625,5.59996875 L27.2000625,10.3999687 C27.2000625,10.8415312 27.5584687,11.1999375 28.0000312,11.1999375 L36,11.1999375 C36.4415625,11.1999375 36.7999687,10.8415312 36.7999687,10.3999687 C36.7999687,9.95840625 36.4415625,9.6 36,9.6 L28.8,9.6 L28.8,6.40003125 L38.4,6.40003125 L38.4,16.1472188 C37.470375,16.4791875 36.7999687,17.358375 36.7999687,18.4000312 C36.7999687,19.7232188 37.8767812,20.8000312 39.1999687,20.8000312 C40.5231562,20.8000312 41.5999688,19.7232188 41.5999688,18.4000312 C41.5999687,17.358375 40.9295625,16.4791875 40.0000312,16.1472188 L40.0000312,16.1472188 Z M39.1999687,19.2 C38.7591562,19.2 38.4,18.8408438 38.4,18.4000313 C38.4,17.9592188 38.7591562,17.6000625 39.1999687,17.6000625 C39.6407812,17.6000625 39.9999375,17.9592188 39.9999375,18.4000313 C40.0000312,18.8408438 39.6407812,19.2 39.1999687,19.2 L39.1999687,19.2 Z" id="Shape"></path>
                </g>
            </g>
        </g>
    </g>
</svg>