<?xml version="1.0" encoding="UTF-8" standalone="no"?>
<svg width="42px" height="48px" viewBox="0 0 42 48" version="1.1" xmlns="http://www.w3.org/2000/svg" xmlns:xlink="http://www.w3.org/1999/xlink">
    <!-- Generator: Sketch 3.7.2 (28276) - http://www.bohemiancoding.com/sketch -->
    <title>inbox</title>
    <desc>Created with Sketch.</desc>
    <defs></defs>
    <g id="Page-1" stroke="none" stroke-width="1" fill="none" fill-rule="evenodd">
        <g id="inbox" fill="#000000">
            <g id="Capa_1">
                <g id="Group">
                    <path d="M42,30 L41.89575,30 L37.39575,0 L4.60425,0 L0.10425,30 L0,30 L0,48 L42,48 L42,30 L42,30 Z M5.89575,1.5 L36.1035,1.5 L40.3785,30 L28.5,30 L28.5,30.75 C28.5,34.8855 25.1355,38.25 21,38.25 C16.8645,38.25 13.5,34.8855 13.5,30.75 L13.5,30 L1.62075,30 L5.89575,1.5 L5.89575,1.5 Z M40.5,46.5 L1.5,46.5 L1.5,31.5 L12.03075,31.5 C12.41325,36.1125 16.29,39.75 21,39.75 C25.71,39.75 29.58675,36.1125 29.96925,31.5 L40.5,31.5 L40.5,46.5 Z M6,22.5 L36,22.5 L36,24 L6,24 L6,22.5 Z M7.5,15 L34.5,15 L34.5,16.5 L7.5,16.5 L7.5,15 Z M9,7.5 L33,7.5 L33,9 L9,9 L9,7.5 Z" id="Combined-Shape"></path>
                </g>
            </g>
        </g>
    </g>
</svg>