<?xml version="1.0" encoding="UTF-8" standalone="no"?>
<svg width="50px" height="48px" viewBox="0 0 50 48" version="1.1" xmlns="http://www.w3.org/2000/svg" xmlns:xlink="http://www.w3.org/1999/xlink">
    <!-- Generator: Sketch 3.8.1 (29687) - http://www.bohemiancoding.com/sketch -->
    <title>newspaper</title>
    <desc>Created with Sketch.</desc>
    <defs></defs>
    <g id="Page-1" stroke="none" stroke-width="1" fill="none" fill-rule="evenodd">
        <g id="Desktop" transform="translate(-325.000000, -379.000000)" fill="#000000">
            <g id="newspaper" transform="translate(325.000000, 379.000000)">
                <g id="Capa_1">
                    <g id="Group">
                        <path d="M47.8092715,3.96301987 C47.1099338,3.96301987 46.5377483,4.5352053 46.5377483,5.23454305 L46.5377483,38.9828874 C46.5377483,42.5537483 43.6344371,45.4464636 40.0741722,45.4464636 L9.00662252,45.4464636 C5.43576159,45.4464636 2.54304636,42.5431523 2.54304636,38.9828874 L2.54304636,2.5749404 L39.7668874,2.5749404 L39.7668874,35.3166623 C39.7668874,36.016 40.3390728,36.5881854 41.0384106,36.5881854 C41.7377483,36.5881854 42.3099338,36.016 42.3099338,35.3166623 L42.3099338,1.30341722 C42.3099338,0.60407947 41.7377483,0.0318940397 41.0384106,0.0318940397 L1.27152318,0.0318940397 C0.57218543,0.0318940397 0,0.60407947 0,1.30341722 L0,38.9722914 C0,43.9418278 4.03708609,47.9789139 9.00662252,47.9789139 L40.0635762,47.9789139 C45.0331126,47.9789139 49.0701987,43.9418278 49.0701987,38.9722914 L49.0701987,5.23454305 C49.0807947,4.5352053 48.5086093,3.96301987 47.8092715,3.96301987 L47.8092715,3.96301987 Z" id="Shape"></path>
                        <path d="M34.8927152,9.90739073 C35.592053,9.90739073 36.1642384,9.3352053 36.1642384,8.63586755 C36.1642384,7.9365298 35.592053,7.36434437 34.8927152,7.36434437 L7.17350993,7.36434437 C6.47417219,7.36434437 5.90198675,7.9365298 5.90198675,8.63586755 C5.90198675,9.3352053 6.47417219,9.90739073 7.17350993,9.90739073 L34.8927152,9.90739073 L34.8927152,9.90739073 Z" id="Shape"></path>
                        <path d="M34.8927152,33.2822252 L7.17350993,33.2822252 C6.47417219,33.2822252 5.90198675,33.8544106 5.90198675,34.5537483 C5.90198675,35.2530861 6.47417219,35.8252715 7.17350993,35.8252715 L34.8821192,35.8252715 C35.581457,35.8252715 36.1536424,35.2530861 36.1536424,34.5537483 C36.1536424,33.8544106 35.592053,33.2822252 34.8927152,33.2822252 L34.8927152,33.2822252 Z" id="Shape"></path>
                        <path d="M34.8927152,39.7987815 L11.5708609,39.7987815 C10.8715232,39.7987815 10.2993377,40.3709669 10.2993377,41.0703046 C10.2993377,41.7696424 10.8715232,42.3418278 11.5708609,42.3418278 L34.8927152,42.3418278 C35.592053,42.3418278 36.1642384,41.7696424 36.1642384,41.0703046 C36.1642384,40.3709669 35.592053,39.7987815 34.8927152,39.7987815 L34.8927152,39.7987815 Z" id="Shape"></path>
                        <path d="M5.4781457,14.3471258 L5.4781457,28.1007682 C5.4781457,28.800106 6.05033113,29.3722914 6.74966887,29.3722914 L20.5562914,29.3722914 C21.2556291,29.3722914 21.8278146,28.800106 21.8278146,28.1007682 L21.8278146,14.3471258 C21.8278146,13.6477881 21.2556291,13.0756026 20.5562914,13.0756026 L6.74966887,13.0756026 C6.05033113,13.0756026 5.4781457,13.6477881 5.4781457,14.3471258 L5.4781457,14.3471258 Z M8.02119205,15.618649 L19.2847682,15.618649 L19.2847682,26.829245 L8.02119205,26.829245 L8.02119205,15.618649 L8.02119205,15.618649 Z" id="Shape"></path>
                        <path d="M35.5708609,14.3471258 L26.4264901,14.3471258 C25.7271523,14.3471258 25.1549669,14.9193113 25.1549669,15.618649 C25.1549669,16.3179868 25.7271523,16.8901722 26.4264901,16.8901722 L35.5708609,16.8901722 C36.2701987,16.8901722 36.8423841,16.3179868 36.8423841,15.618649 C36.8423841,14.9193113 36.2807947,14.3471258 35.5708609,14.3471258 L35.5708609,14.3471258 Z" id="Shape"></path>
                        <path d="M35.5708609,20.0901722 L26.4264901,20.0901722 C25.7271523,20.0901722 25.1549669,20.6623576 25.1549669,21.3616954 C25.1549669,22.0610331 25.7271523,22.6332185 26.4264901,22.6332185 L35.5708609,22.6332185 C36.2701987,22.6332185 36.8423841,22.0610331 36.8423841,21.3616954 C36.8423841,20.6623576 36.2807947,20.0901722 35.5708609,20.0901722 L35.5708609,20.0901722 Z" id="Shape"></path>
                        <path d="M36.8423841,27.4650066 C36.8423841,26.7656689 36.2701987,26.1934834 35.5708609,26.1934834 L26.4264901,26.1934834 C25.7271523,26.1934834 25.1549669,26.7656689 25.1549669,27.4650066 C25.1549669,28.1643444 25.7271523,28.7365298 26.4264901,28.7365298 L35.5708609,28.7365298 C36.2807947,28.7365298 36.8423841,28.1643444 36.8423841,27.4650066 L36.8423841,27.4650066 Z" id="Shape"></path>
                    </g>
                </g>
            </g>
        </g>
    </g>
</svg>