<?xml version="1.0" encoding="UTF-8" standalone="no"?>
<svg width="42px" height="48px" viewBox="0 0 42 48" version="1.1" xmlns="http://www.w3.org/2000/svg" xmlns:xlink="http://www.w3.org/1999/xlink">
    <!-- Generator: Sketch 3.8.1 (29687) - http://www.bohemiancoding.com/sketch -->
    <title>package</title>
    <desc>Created with Sketch.</desc>
    <defs></defs>
    <g id="Page-1" stroke="none" stroke-width="1" fill="none" fill-rule="evenodd">
        <g id="Desktop" transform="translate(-326.000000, -304.000000)" fill="#000000">
            <g id="package" transform="translate(326.000000, 304.000000)">
                <g id="Capa_1">
                    <path d="M41.9876797,12.6455852 L41.9876797,12.6061602 C41.9876797,12.5765914 41.9876797,12.5568789 41.9778234,12.5273101 L41.9778234,12.487885 C41.9778234,12.44846 41.9679671,12.4188912 41.9581109,12.3893224 C41.9581109,12.3794661 41.9482546,12.3597536 41.9482546,12.3498973 C41.9383984,12.3203285 41.9383984,12.2907598 41.9285421,12.2710472 C41.9285421,12.261191 41.9186858,12.2513347 41.9186858,12.2414784 C41.9088296,12.2020534 41.889117,12.1724846 41.8792608,12.1330595 C41.8792608,12.1232033 41.8694045,12.113347 41.8694045,12.1034908 C41.8398357,12.0344969 41.8004107,11.9655031 41.7511294,11.8965092 C41.7412731,11.886653 41.7412731,11.8767967 41.7314168,11.8767967 C41.7117043,11.8472279 41.6821355,11.8176591 41.662423,11.7880903 L41.6427105,11.7683778 C41.6229979,11.7486653 41.6032854,11.7289528 41.5835729,11.7092402 C41.5737166,11.699384 41.5638604,11.6895277 41.5540041,11.6796715 C41.5244353,11.6599589 41.5047228,11.6303901 41.475154,11.6106776 C41.4652977,11.6008214 41.4554415,11.6008214 41.4455852,11.5909651 C41.4258727,11.5712526 41.4061602,11.5613963 41.3765914,11.5416838 C41.3667351,11.5318275 41.3568789,11.5318275 41.3371663,11.5219713 C41.3273101,11.5219713 41.3273101,11.512115 41.3174538,11.512115 L21.7034908,0.177412731 C21.2895277,-0.059137577 20.7868583,-0.059137577 20.3728953,0.177412731 L0.778644764,11.4924025 L0.749075975,11.512115 L0.749075975,11.512115 L0.749075975,11.512115 C0.749075975,11.512115 0.749075975,11.512115 0.739219713,11.512115 C0.719507187,11.5219713 0.689938398,11.5416838 0.670225873,11.55154 C0.670225873,11.55154 0.66036961,11.55154 0.66036961,11.5613963 C0.640657084,11.5712526 0.620944559,11.5909651 0.601232033,11.6106776 L0.59137577,11.6205339 C0.571663244,11.6402464 0.551950719,11.6501027 0.532238193,11.6698152 L0.52238193,11.6796715 C0.502669405,11.699384 0.482956879,11.7092402 0.473100616,11.7289528 C0.463244353,11.738809 0.463244353,11.738809 0.45338809,11.7486653 C0.443531828,11.7683778 0.423819302,11.7782341 0.413963039,11.7979466 C0.404106776,11.8078029 0.404106776,11.8078029 0.394250513,11.8176591 C0.384394251,11.8373717 0.364681725,11.8472279 0.354825462,11.8669405 C0.344969199,11.8767967 0.344969199,11.886653 0.335112936,11.886653 C0.325256674,11.9063655 0.315400411,11.9162218 0.305544148,11.9359343 C0.295687885,11.9457906 0.295687885,11.9556468 0.285831622,11.9655031 C0.275975359,11.9852156 0.266119097,11.9950719 0.256262834,12.0147844 C0.256262834,12.0246407 0.246406571,12.0344969 0.246406571,12.0344969 C0.236550308,12.0542094 0.226694045,12.0640657 0.216837782,12.0837782 C0.216837782,12.0936345 0.20698152,12.1034908 0.20698152,12.113347 C0.197125257,12.1330595 0.187268994,12.1527721 0.187268994,12.1626283 C0.187268994,12.1724846 0.177412731,12.1823409 0.177412731,12.1921971 C0.167556468,12.2119097 0.167556468,12.2217659 0.157700205,12.2414784 C0.157700205,12.2513347 0.147843943,12.261191 0.147843943,12.2710472 C0.13798768,12.2907598 0.13798768,12.3104723 0.128131417,12.3301848 C0.128131417,12.3400411 0.128131417,12.3498973 0.118275154,12.3597536 C0.118275154,12.3794661 0.108418891,12.3991786 0.108418891,12.4188912 L0.108418891,12.44846 C0.108418891,12.4681725 0.0985626283,12.487885 0.0985626283,12.5075975 L0.0985626283,12.5371663 C0.0985626283,12.5568789 0.0985626283,12.5765914 0.0887063655,12.5963039 L0.0887063655,12.635729 L0.0887063655,12.6850103 L0.0887063655,12.6850103 L0.0887063655,12.6850103 L0.0887063655,35.3445585 C0.0887063655,35.8176591 0.344969199,36.261191 0.758932238,36.4977413 L20.3827515,47.8225873 C20.3827515,47.8225873 20.3926078,47.8225873 20.3926078,47.8324435 C20.4418891,47.8620123 20.4911704,47.8817248 20.5404517,47.9014374 L20.550308,47.9014374 C20.5995893,47.9211499 20.6390144,47.9310062 20.6882957,47.9507187 C20.698152,47.9507187 20.7178645,47.9605749 20.7277207,47.9605749 C20.7671458,47.9704312 20.8065708,47.9802875 20.8459959,47.9802875 C20.8558522,47.9802875 20.8755647,47.9802875 20.8854209,47.9901437 C20.9347023,48 20.9938398,48 21.0431211,48 C21.0924025,48 21.15154,48 21.2008214,47.9901437 C21.2106776,47.9901437 21.2303901,47.9901437 21.2402464,47.9802875 C21.2796715,47.9704312 21.3190965,47.9704312 21.3585216,47.9605749 C21.3683778,47.9605749 21.3880903,47.9507187 21.3979466,47.9507187 C21.4472279,47.9408624 21.4965092,47.9211499 21.5359343,47.9014374 L21.5457906,47.9014374 C21.5950719,47.8817248 21.6443532,47.8521561 21.6936345,47.8324435 C21.6936345,47.8324435 21.7034908,47.8324435 21.7034908,47.8225873 L41.3273101,36.4977413 C41.7412731,36.261191 41.9975359,35.8176591 41.9975359,35.3445585 L41.9975359,12.6652977 C41.9876797,12.6554415 41.9876797,12.6455852 41.9876797,12.6455852 L41.9876797,12.6455852 Z M21.0332649,2.86817248 L37.9958932,12.6652977 L30.938809,16.7457906 L14.1240246,6.85995893 L21.0332649,2.86817248 L21.0332649,2.86817248 Z M19.7026694,44.3433265 L2.74004107,34.5462012 L2.74004107,14.961807 L19.7026694,24.7589322 L19.7026694,44.3433265 L19.7026694,44.3433265 Z M21.0332649,22.4525667 L4.07063655,12.6652977 L11.4825462,8.39753593 L28.2776181,18.2735113 L21.0332649,22.4525667 L21.0332649,22.4525667 Z M39.3264887,34.5462012 L22.3638604,44.3433265 L22.3638604,24.7589322 L31.6090349,19.4365503 C31.6681725,19.4069815 31.7174538,19.3675565 31.7667351,19.3281314 L39.336345,14.961807 L39.336345,34.5462012 L39.3264887,34.5462012 L39.3264887,34.5462012 Z" id="Shape"></path>
                </g>
            </g>
        </g>
    </g>
</svg>