<?xml version="1.0" encoding="UTF-8" standalone="no"?>
<svg width="48px" height="48px" viewBox="0 0 48 48" version="1.1" xmlns="http://www.w3.org/2000/svg" xmlns:xlink="http://www.w3.org/1999/xlink">
    <!-- Generator: Sketch 3.8.1 (29687) - http://www.bohemiancoding.com/sketch -->
    <title>paper-plane</title>
    <desc>Created with Sketch.</desc>
    <defs></defs>
    <g id="Page-1" stroke="none" stroke-width="1" fill="none" fill-rule="evenodd">
        <g id="Desktop" transform="translate(-544.000000, -379.000000)" fill="#000000">
            <g id="paper-plane" transform="translate(544.000000, 379.000000)">
                <g id="Capa_1">
                    <path d="M48.0098563,1.38628337 L48.0098563,1.34685832 C48.0098563,1.31728953 48,1.297577 48,1.26800821 C48,1.24829569 48,1.22858316 47.9901437,1.20887064 C47.9901437,1.18915811 47.9802875,1.16944559 47.9802875,1.15958932 C47.9704312,1.1398768 47.9704312,1.11030801 47.9605749,1.09059548 C47.9605749,1.08073922 47.9507187,1.07088296 47.9507187,1.05117043 C47.9408624,1.02160164 47.9310062,0.992032854 47.9211499,0.962464066 C47.9211499,0.952607803 47.9112936,0.952607803 47.9112936,0.94275154 C47.9014374,0.913182752 47.8817248,0.8737577 47.8620123,0.844188912 C47.8620123,0.834332649 47.8521561,0.824476386 47.8521561,0.824476386 C47.8324435,0.794907598 47.8225873,0.765338809 47.8028747,0.735770021 C47.7338809,0.637207392 47.6550308,0.548501027 47.5663244,0.469650924 C47.2016427,0.055687885 46.6004107,-0.111868583 46.0583162,0.114825462 L0.827926078,18.8022998 C0.818069815,18.8121561 0.79835729,18.8121561 0.788501027,18.8220123 C0.758932238,18.8318686 0.739219713,18.8417248 0.709650924,18.8614374 C0.689938398,18.8712936 0.670225873,18.8811499 0.650513347,18.8910062 C0.630800821,18.9008624 0.611088296,18.9107187 0.59137577,18.9304312 C0.571663244,18.9402875 0.551950719,18.96 0.532238193,18.9698563 C0.512525667,18.9797125 0.502669405,18.9895688 0.482956879,19.0092813 C0.463244353,19.0191376 0.45338809,19.0388501 0.433675565,19.0585626 C0.413963039,19.0684189 0.404106776,19.0881314 0.384394251,19.0979877 C0.364681725,19.1177002 0.354825462,19.1275565 0.335112936,19.147269 C0.325256674,19.1669815 0.305544148,19.1768378 0.295687885,19.1965503 C0.285831622,19.2162628 0.266119097,19.2359754 0.256262834,19.2458316 C0.246406571,19.2655441 0.226694045,19.2754004 0.216837782,19.2951129 C0.20698152,19.3148255 0.187268994,19.334538 0.177412731,19.3542505 C0.167556468,19.373963 0.157700205,19.3838193 0.147843943,19.4035318 C0.128131417,19.4331006 0.118275154,19.4626694 0.108418891,19.4922382 C0.108418891,19.5020945 0.0985626283,19.5119507 0.0887063655,19.521807 L0.0887063655,19.521807 C0.0689938398,19.561232 0.059137577,19.6006571 0.0492813142,19.6400821 C0.0492813142,19.6400821 0.0492813142,19.6400821 0.0492813142,19.6499384 C0.0394250513,19.6893634 0.0295687885,19.7287885 0.0197125257,19.7780698 C0.0197125257,19.7977823 0.00985626283,19.8174949 0.00985626283,19.8372074 C0.00985626283,19.8569199 1.42254449e-16,19.8864887 1.42254449e-16,19.9062012 L1.42254449e-16,19.9653388 L1.42254449e-16,20.0343326 L1.42254449e-16,20.0934702 L1.42254449e-16,20.1624641 C1.42254449e-16,20.1821766 0.00985626283,20.2018891 0.00985626283,20.2117454 C0.00985626283,20.2413142 0.0197125257,20.2610267 0.0197125257,20.2905955 C0.0295687885,20.3201643 0.0295687885,20.3497331 0.0394250513,20.3793018 C0.0492813142,20.3990144 0.0492813142,20.4187269 0.059137577,20.4384394 C0.0689938398,20.4680082 0.0788501027,20.5074333 0.0985626283,20.5370021 L0.0985626283,20.5370021 C0.108418891,20.5764271 0.128131417,20.6059959 0.147843943,20.6355647 C0.147843943,20.6454209 0.157700205,20.6552772 0.157700205,20.6552772 C0.167556468,20.684846 0.187268994,20.7045585 0.20698152,20.7341273 C0.216837782,20.7439836 0.216837782,20.7538398 0.226694045,20.7636961 C0.246406571,20.7932649 0.256262834,20.8129774 0.275975359,20.8326899 C0.285831622,20.8425462 0.285831622,20.8524025 0.295687885,20.8524025 C0.325256674,20.8819713 0.344969199,20.91154 0.374537988,20.9411088 L0.374537988,20.9411088 C0.404106776,20.9706776 0.433675565,20.9903901 0.463244353,21.0199589 C0.473100616,21.0298152 0.482956879,21.0396715 0.492813142,21.0396715 C0.512525667,21.059384 0.542094456,21.0790965 0.561806982,21.0889528 C0.571663244,21.098809 0.581519507,21.098809 0.59137577,21.1086653 C0.620944559,21.1283778 0.66036961,21.1480903 0.689938398,21.1678029 C0.699794661,21.1678029 0.699794661,21.1776591 0.709650924,21.1776591 C0.739219713,21.1973717 0.768788501,21.2072279 0.808213552,21.2269405 C0.818069815,21.2269405 0.818069815,21.2367967 0.827926078,21.2367967 L19.0620123,28.9641068 L26.7893224,47.198193 C26.7991786,47.2376181 26.8188912,47.2671869 26.8386037,47.2967556 C26.8386037,47.3066119 26.84846,47.3164682 26.84846,47.3164682 C26.8681725,47.346037 26.8780287,47.3657495 26.8977413,47.3953183 C26.9075975,47.4051745 26.9075975,47.4150308 26.9174538,47.4248871 C26.9371663,47.4544559 26.9568789,47.4741684 26.9667351,47.4938809 C26.9765914,47.5037372 26.9765914,47.5135934 26.9864476,47.5135934 C27.0160164,47.5431622 27.035729,47.572731 27.0652977,47.6022998 L27.075154,47.6121561 C27.1047228,47.6318686 27.1244353,47.6614374 27.1540041,47.6811499 C27.1638604,47.6910062 27.1737166,47.7008624 27.1835729,47.7008624 C27.2032854,47.7205749 27.2328542,47.7402875 27.2525667,47.7501437 C27.262423,47.76 27.2722793,47.76 27.2821355,47.7698563 C27.3117043,47.7895688 27.3511294,47.8092813 27.3806982,47.8289938 C27.3905544,47.8289938 27.4004107,47.8388501 27.4004107,47.8388501 C27.4299795,47.8585626 27.4595483,47.8684189 27.489117,47.8782752 C27.4989733,47.8782752 27.4989733,47.8881314 27.5088296,47.8881314 C27.5088296,47.8881314 27.5186858,47.8881314 27.5186858,47.8979877 C27.5482546,47.9078439 27.5876797,47.9275565 27.6172485,47.9374127 L27.6271047,47.9374127 C27.6665298,47.947269 27.6960986,47.9571253 27.7355236,47.9669815 C27.7453799,47.9669815 27.7650924,47.9669815 27.7749487,47.9768378 C27.8045175,47.9768378 27.82423,47.986694 27.8537988,47.986694 L27.8932238,47.986694 C27.9326489,47.986694 27.9622177,47.9965503 28.0016427,47.9965503 L28.0016427,47.9965503 L28.0016427,47.9965503 L28.0016427,47.9965503 L28.0016427,47.9965503 C28.0410678,47.9965503 28.0804928,47.9965503 28.1100616,47.986694 L28.1494867,47.986694 C28.1790554,47.986694 28.2086242,47.9768378 28.2283368,47.9768378 C28.238193,47.9768378 28.2579055,47.9768378 28.2677618,47.9669815 C28.3071869,47.9571253 28.3466119,47.947269 28.3761807,47.9374127 C28.386037,47.9374127 28.386037,47.9374127 28.3958932,47.9275565 C28.425462,47.9177002 28.4648871,47.9078439 28.4944559,47.8881314 C28.5043121,47.8881314 28.5043121,47.8881314 28.5141684,47.8782752 C28.5240246,47.8782752 28.5240246,47.8684189 28.5338809,47.8684189 C28.5634497,47.8585626 28.5930185,47.8388501 28.6225873,47.8191376 C28.6324435,47.8191376 28.6324435,47.8092813 28.6422998,47.8092813 C28.6718686,47.7895688 28.7112936,47.7698563 28.7408624,47.7501437 C28.7507187,47.7402875 28.7605749,47.7402875 28.7704312,47.7304312 C28.7901437,47.7107187 28.8197125,47.7008624 28.8394251,47.6811499 C28.8492813,47.6712936 28.8591376,47.6614374 28.8689938,47.6614374 C28.8985626,47.6318686 28.9281314,47.6121561 28.9478439,47.5825873 L28.9478439,47.5825873 C28.9774127,47.5530185 28.9971253,47.5234497 29.026694,47.4938809 C29.0365503,47.4840246 29.0365503,47.4741684 29.0464066,47.4643121 C29.0661191,47.4445996 29.0858316,47.4150308 29.0956879,47.3953183 C29.1055441,47.385462 29.1055441,47.3756057 29.1154004,47.3657495 C29.1351129,47.3361807 29.1449692,47.3164682 29.1646817,47.2868994 C29.1646817,47.2770431 29.174538,47.2671869 29.174538,47.2671869 C29.1942505,47.2376181 29.2041068,47.198193 29.2238193,47.1686242 L47.9112936,1.9875154 C47.9408624,1.9086653 47.9704312,1.81995893 47.9901437,1.73125257 C48,1.70168378 48,1.66225873 48,1.63268994 L48,1.60312115 C48,1.5636961 48,1.53412731 48.0098563,1.49470226 L48.0098563,1.47498973 C48.0098563,1.44542094 48.0098563,1.41585216 48.0098563,1.38628337 L48.0098563,1.38628337 Z M4.79014374,20.0441889 L41.3174538,4.96410678 L19.8505133,26.421191 L4.79014374,20.0441889 L4.79014374,20.0441889 Z M27.9917864,43.2458316 L21.6837782,28.3530185 L42.9043121,7.14234086 L27.9917864,43.2458316 L27.9917864,43.2458316 Z" id="Shape"></path>
                </g>
            </g>
        </g>
    </g>
</svg>