<?xml version="1.0" encoding="UTF-8" standalone="no"?>
<svg width="48px" height="48px" viewBox="0 0 48 48" version="1.1" xmlns="http://www.w3.org/2000/svg" xmlns:xlink="http://www.w3.org/1999/xlink">
    <!-- Generator: Sketch 3.8.1 (29687) - http://www.bohemiancoding.com/sketch -->
    <title>play-button</title>
    <desc>Created with Sketch.</desc>
    <defs></defs>
    <g id="Page-1" stroke="none" stroke-width="1" fill="none" fill-rule="evenodd">
        <g id="Desktop" transform="translate(-913.000000, -388.000000)" fill="#000000">
            <g id="play-button" transform="translate(913.000000, 388.000000)">
                <g id="Capa_1">
                    <g id="Group">
                        <path d="M40.9746362,7.02536383 C36.4340956,2.49480249 30.4066528,0 24,0 C17.5933472,0 11.5659044,2.49480249 7.02536383,7.02536383 C2.49480249,11.5659044 0,17.5933472 0,24 C0,30.4066528 2.49480249,36.4340956 7.02536383,40.9746362 C11.5559252,45.5051975 17.583368,48 24,48 C30.416632,48 36.4340956,45.5051975 40.9746362,40.9746362 C45.5051975,36.4440748 48,30.416632 48,24 C48,17.583368 45.5051975,11.5659044 40.9746362,7.02536383 L40.9746362,7.02536383 Z M24,45.3056133 C12.2544699,45.3056133 2.69438669,35.7455301 2.69438669,24 C2.69438669,12.2544699 12.2544699,2.69438669 24,2.69438669 C35.7455301,2.69438669 45.3056133,12.2544699 45.3056133,24 C45.3056133,35.7455301 35.7455301,45.3056133 24,45.3056133 L24,45.3056133 Z" id="Shape"></path>
                        <path d="M34.8474012,22.8623701 L19.6191268,13.0927235 C19.2,12.8232848 18.6810811,12.8033264 18.2419958,13.0428274 C17.8128898,13.2823285 17.5434511,13.7313929 17.5434511,14.2203742 L17.5434511,33.7496881 C17.5434511,34.2386694 17.8128898,34.6977131 18.2419958,34.9272349 C18.44158,35.0370062 18.6711019,35.0968815 18.8906445,35.0968815 C19.1401247,35.0968815 19.3995842,35.027027 19.6191268,34.8873181 L34.8474012,25.1176715 C35.2365904,24.8681913 35.4661123,24.4390852 35.4661123,23.9800416 C35.4661123,23.5209979 35.2266112,23.1118503 34.8474012,22.8623701 L34.8474012,22.8623701 Z M20.2378378,31.3047817 L20.2378378,16.6952183 L31.6241164,24 L20.2378378,31.3047817 L20.2378378,31.3047817 Z" id="Shape"></path>
                    </g>
                </g>
            </g>
        </g>
    </g>
</svg>