<?xml version="1.0" encoding="UTF-8" standalone="no"?>
<svg width="48px" height="48px" viewBox="0 0 48 48" version="1.1" xmlns="http://www.w3.org/2000/svg" xmlns:xlink="http://www.w3.org/1999/xlink">
    <!-- Generator: Sketch 3.7.2 (28276) - http://www.bohemiancoding.com/sketch -->
    <title>route</title>
    <desc>Created with Sketch.</desc>
    <defs></defs>
    <g id="Page-1" stroke="none" stroke-width="1" fill="none" fill-rule="evenodd">
        <g id="route" fill="#000000">
            <g id="Capa_1">
                <g id="Group">
                    <path d="M16.8168,23.1816 C15,21.1296 12.5776,20 9.9944,20 C7.4112,20 4.9888,21.1296 3.1728,23.1816 C-0.5168,27.3504 -0.5168,34.132 3.1728,38.3008 L9.9944,46.0072 L16.816,38.3008 C20.5064,34.132 20.5064,27.3504 16.8168,23.1816 L16.8168,23.1816 Z M15.6184,37.24 L9.9952,43.5928 L4.3712,37.24 C1.1984,33.6568 1.1984,27.8256 4.3712,24.2424 C5.8792,22.5384 7.8768,21.6 9.9944,21.6 C12.112,21.6 14.1104,22.5384 15.6176,24.2424 C18.7904,27.8256 18.7904,33.656 15.6184,37.24 L15.6184,37.24 Z" id="Shape"></path>
                    <path d="M38.9976,19.6056 L44.1688,13.7768 C46.9512,10.6408 46.9512,5.54 44.1688,2.404 C42.7928,0.8536 40.956,0 38.9968,0 C37.0384,0 35.2016,0.8536 33.8256,2.404 C31.0432,5.54 31.0432,10.6408 33.8256,13.7768 L38.9976,19.6056 L38.9976,19.6056 Z M35.0224,3.4664 C36.0904,2.2624 37.5016,1.6 38.9968,1.6 C40.4928,1.6 41.904,2.2624 42.972,3.4664 C45.2344,6.016 45.2344,10.1648 42.972,12.7144 L38.9976,17.1952 L35.0224,12.7144 C32.76,10.1648 32.76,6.016 35.0224,3.4664 L35.0224,3.4664 Z" id="Shape"></path>
                    <path d="M42.0832,43.6136 C41.652,43.5168 41.224,43.7872 41.1272,44.2184 C41.0352,44.6264 40.8568,45.0016 40.5968,45.332 C40.324,45.6792 40.3832,46.1824 40.7312,46.4552 C40.8784,46.5704 41.052,46.6264 41.2248,46.6264 C41.4624,46.6264 41.6968,46.5216 41.8544,46.3208 C42.2576,45.8088 42.5456,45.204 42.688,44.5704 C42.7848,44.1384 42.5144,43.7104 42.0832,43.6136 L42.0832,43.6136 Z" id="Shape"></path>
                    <path d="M25.596,24.8 C25.2496,24.7992 24.9128,24.7376 24.5944,24.616 C24.1848,24.46 23.72,24.6656 23.5616,25.0784 C23.4048,25.4912 23.612,25.9536 24.024,26.1112 C24.5248,26.3016 25.052,26.3992 25.5944,26.4 L25.88,26.4 C26.3224,26.4 26.68,26.0424 26.68,25.6 C26.68,25.1576 26.3224,24.8 25.88,24.8 L25.596,24.8 L25.596,24.8 Z" id="Shape"></path>
                    <path d="M23.6968,19.7408 C23.8416,19.7408 23.9872,19.7016 24.1192,19.62 C24.4736,19.3992 24.8656,19.264 25.2824,19.2176 C25.7216,19.1688 26.0384,18.7736 25.9904,18.3344 C25.9424,17.8952 25.5496,17.5816 25.1072,17.6264 C24.4496,17.6992 23.832,17.912 23.272,18.2616 C22.8968,18.4952 22.7832,18.9888 23.0168,19.364 C23.1688,19.6072 23.4296,19.7408 23.6968,19.7408 L23.6968,19.7408 Z" id="Shape"></path>
                    <path d="M14.4512,46.4 L12.8512,46.4 C12.4088,46.4 12.0512,46.7576 12.0512,47.2 C12.0512,47.6424 12.4088,48 12.8512,48 L14.4512,48 C14.8936,48 15.2512,47.6424 15.2512,47.2 C15.2512,46.7576 14.8928,46.4 14.4512,46.4 L14.4512,46.4 Z" id="Shape"></path>
                    <path d="M28.7944,32 C28.7256,32 28.6576,32.0016 28.5896,32.0048 C28.148,32.0224 27.8056,32.3952 27.8232,32.8368 C27.84,33.2672 28.1952,33.604 28.6216,33.604 C28.6328,33.604 28.644,33.604 28.6552,33.6032 L30.2224,33.6 C30.6648,33.6 31.0224,33.2424 31.0224,32.8 C31.0224,32.3576 30.6648,32 30.2224,32 L28.7944,32 L28.7944,32 Z" id="Shape"></path>
                    <path d="M28.3944,19.2 L29.9944,19.2 C30.4368,19.2 30.7944,18.8424 30.7944,18.4 C30.7944,17.9576 30.4368,17.6 29.9944,17.6 L28.3944,17.6 C27.952,17.6 27.5944,17.9576 27.5944,18.4 C27.5944,18.8424 27.952,19.2 28.3944,19.2 L28.3944,19.2 Z" id="Shape"></path>
                    <path d="M38.2224,32 C37.78,32 37.4224,32.3576 37.4224,32.8 C37.4224,33.2424 37.78,33.6 38.2224,33.6 L39.8224,33.6 C40.2648,33.6 40.6224,33.2424 40.6224,32.8 C40.6224,32.3576 40.2648,32 39.8224,32 L38.2224,32 L38.2224,32 Z" id="Shape"></path>
                    <path d="M41.0808,25.6 C41.0808,25.1576 40.7232,24.8 40.2808,24.8 L38.6808,24.8 C38.2384,24.8 37.8808,25.1576 37.8808,25.6 C37.8808,26.0424 38.2384,26.4 38.6808,26.4 L40.2808,26.4 C40.7224,26.4 41.0808,26.0424 41.0808,25.6 L41.0808,25.6 Z" id="Shape"></path>
                    <path d="M33.4224,33.6 L35.0224,33.6 C35.4648,33.6 35.8224,33.2424 35.8224,32.8 C35.8224,32.3576 35.4648,32 35.0224,32 L33.4224,32 C32.98,32 32.6224,32.3576 32.6224,32.8 C32.6224,33.2424 32.9808,33.6 33.4224,33.6 L33.4224,33.6 Z" id="Shape"></path>
                    <path d="M34.7944,19.2 C35.2368,19.2 35.5944,18.8424 35.5944,18.4 C35.5944,17.9576 35.2368,17.6 34.7944,17.6 L33.1944,17.6 C32.752,17.6 32.3944,17.9576 32.3944,18.4 C32.3944,18.8424 32.752,19.2 33.1944,19.2 L34.7944,19.2 L34.7944,19.2 Z" id="Shape"></path>
                    <path d="M29.0808,24.8 C28.6384,24.8 28.2808,25.1576 28.2808,25.6 C28.2808,26.0424 28.6384,26.4 29.0808,26.4 L30.6808,26.4 C31.1232,26.4 31.4808,26.0424 31.4808,25.6 C31.4808,25.1576 31.1232,24.8 30.6808,24.8 L29.0808,24.8 L29.0808,24.8 Z" id="Shape"></path>
                    <path d="M36.2808,25.6 C36.2808,25.1576 35.9232,24.8 35.4808,24.8 L33.8808,24.8 C33.4384,24.8 33.0808,25.1576 33.0808,25.6 C33.0808,26.0424 33.4384,26.4 33.8808,26.4 L35.4808,26.4 C35.9224,26.4 36.2808,26.0424 36.2808,25.6 L36.2808,25.6 Z" id="Shape"></path>
                    <path d="M47.5408,28.5056 C47.4704,28.0688 47.0584,27.7704 46.624,27.8424 C46.1872,27.912 45.8904,28.3232 45.9608,28.7592 C45.9832,28.9016 45.996,29.0464 45.9944,29.2008 C45.9944,29.4696 45.956,29.7352 45.8808,29.9912 C45.7568,30.4152 45.9992,30.86 46.424,30.984 C46.4992,31.0056 46.5744,31.016 46.6488,31.016 C46.9952,31.016 47.3144,30.7904 47.4168,30.4408 C47.5344,30.0384 47.5944,29.6216 47.5944,29.2064 C47.596,28.976 47.5784,28.74 47.5408,28.5056 L47.5408,28.5056 Z" id="Shape"></path>
                    <path d="M33.6512,46.4 L32.0512,46.4 C31.6088,46.4 31.2512,46.7576 31.2512,47.2 C31.2512,47.6424 31.6088,48 32.0512,48 L33.6512,48 C34.0936,48 34.4512,47.6424 34.4512,47.2 C34.4512,46.7576 34.0928,46.4 33.6512,46.4 L33.6512,46.4 Z" id="Shape"></path>
                    <path d="M28.8512,46.4 L27.2512,46.4 C26.8088,46.4 26.4512,46.7576 26.4512,47.2 C26.4512,47.6424 26.8088,48 27.2512,48 L28.8512,48 C29.2936,48 29.6512,47.6424 29.6512,47.2 C29.6512,46.7576 29.2928,46.4 28.8512,46.4 L28.8512,46.4 Z" id="Shape"></path>
                    <path d="M37.652,40 C37.652,39.5576 37.2944,39.2 36.852,39.2 L35.252,39.2 C34.8096,39.2 34.452,39.5576 34.452,40 C34.452,40.4424 34.8096,40.8 35.252,40.8 L36.852,40.8 C37.2936,40.8 37.652,40.4424 37.652,40 L37.652,40 Z" id="Shape"></path>
                    <path d="M32.852,40 C32.852,39.5576 32.4944,39.2 32.052,39.2 L30.452,39.2 C30.0096,39.2 29.652,39.5576 29.652,40 C29.652,40.4424 30.0096,40.8 30.452,40.8 L32.052,40.8 C32.4936,40.8 32.852,40.4424 32.852,40 L32.852,40 Z" id="Shape"></path>
                    <path d="M38.3944,46.4 L36.8504,46.4 C36.408,46.4 36.0504,46.7576 36.0504,47.2 C36.0504,47.6424 36.408,48 36.8504,48 L38.4272,47.9992 L38.4504,47.1992 L38.4504,47.9992 C38.8928,47.9992 39.2224,47.6416 39.2224,47.1992 C39.2224,46.7576 38.8368,46.4 38.3944,46.4 L38.3944,46.4 Z" id="Shape"></path>
                    <path d="M41.2248,42.1752 C41.3976,42.1752 41.5728,42.1192 41.7184,42.004 C42.0664,41.7304 42.1256,41.2272 41.8528,40.8808 C41.4504,40.3696 40.9312,39.9472 40.3496,39.6584 C39.952,39.4608 39.4736,39.6232 39.2768,40.0184 C39.08,40.4144 39.2416,40.8944 39.6368,41.0912 C40.0072,41.2744 40.3384,41.544 40.5944,41.8704 C40.7528,42.0704 40.9872,42.1752 41.2248,42.1752 L41.2248,42.1752 Z" id="Shape"></path>
                    <path d="M44.276,31.7832 C43.9328,31.9272 43.5696,32 43.1944,32 L43.0224,32 C42.58,32 42.2224,32.3576 42.2224,32.8 C42.2224,33.2424 42.58,33.6 43.0224,33.6 L43.1944,33.6 C43.7832,33.6 44.3552,33.4848 44.8944,33.2584 C45.3024,33.0872 45.4936,32.6184 45.3224,32.2112 C45.152,31.804 44.68,31.612 44.276,31.7832 L44.276,31.7832 Z" id="Shape"></path>
                    <path d="M22.4232,23.884 C22.8424,23.7456 23.0712,23.2936 22.9336,22.8736 C22.8416,22.5928 22.7944,22.2992 22.7944,22.0032 C22.7952,21.8824 22.8024,21.7616 22.8168,21.644 C22.872,21.2056 22.5616,20.8048 22.1232,20.7504 C21.6712,20.7 21.284,21.0072 21.2296,21.444 C21.2072,21.6248 21.1952,21.8088 21.1944,21.9992 C21.1944,22.4696 21.268,22.932 21.4128,23.3736 C21.524,23.7104 21.8368,23.924 22.1728,23.924 C22.256,23.924 22.3408,23.912 22.4232,23.884 L22.4232,23.884 Z" id="Shape"></path>
                    <path d="M19.2512,46.4 L17.6512,46.4 C17.2088,46.4 16.8512,46.7576 16.8512,47.2 C16.8512,47.6424 17.2088,48 17.6512,48 L19.2512,48 C19.6936,48 20.0512,47.6424 20.0512,47.2 C20.0512,46.7576 19.6928,46.4 19.2512,46.4 L19.2512,46.4 Z" id="Shape"></path>
                    <path d="M27.2976,40.4752 C27.6016,40.4752 27.8912,40.3016 28.0256,40.008 C28.2088,39.6056 28.0328,39.1312 27.6312,38.948 C27.256,38.776 26.916,38.5176 26.6488,38.1992 C26.364,37.8608 25.86,37.8168 25.5216,38.1016 C25.1832,38.3856 25.1392,38.8904 25.424,39.2288 C25.8432,39.7272 26.376,40.1336 26.9656,40.4024 C27.0736,40.4512 27.1864,40.4752 27.2976,40.4752 L27.2976,40.4752 Z" id="Shape"></path>
                    <path d="M45.3968,25.3904 C44.8256,25.0592 44.2016,24.8648 43.5432,24.8128 C43.104,24.7808 42.7176,25.1064 42.6832,25.548 C42.6488,25.9888 42.9776,26.3736 43.4184,26.408 C43.836,26.4408 44.232,26.564 44.5944,26.7744 C44.7208,26.848 44.8592,26.8824 44.9952,26.8824 C45.2712,26.8824 45.54,26.7392 45.688,26.484 C45.9096,26.1024 45.7792,25.6128 45.3968,25.3904 L45.3968,25.3904 Z" id="Shape"></path>
                    <path d="M24.0512,46.4 L22.4512,46.4 C22.0088,46.4 21.6512,46.7576 21.6512,47.2 C21.6512,47.6424 22.0088,48 22.4512,48 L24.0512,48 C24.4936,48 24.8512,47.6424 24.8512,47.2 C24.8512,46.7576 24.4928,46.4 24.0512,46.4 L24.0512,46.4 Z" id="Shape"></path>
                    <path d="M26.044,35.8712 C26.1232,35.46 26.2896,35.08 26.5392,34.7408 C26.8008,34.3856 26.7248,33.8848 26.3688,33.6224 C26.0128,33.3616 25.5128,33.4368 25.2504,33.7928 C24.8592,34.3256 24.5968,34.9232 24.472,35.5704 C24.3888,36.004 24.6728,36.4232 25.1072,36.5072 C25.1576,36.5168 25.2088,36.5216 25.2584,36.5216 C25.6344,36.52 25.9696,36.2536 26.044,35.8712 L26.044,35.8712 Z" id="Shape"></path>
                    <path d="M39.1944,12 C41.62,12 43.5944,10.0256 43.5944,7.6 C43.5944,5.1744 41.62,3.2 39.1944,3.2 C36.7688,3.2 34.7944,5.1744 34.7944,7.6 C34.7944,10.0256 36.7688,12 39.1944,12 L39.1944,12 Z M39.1944,4.8 C40.7384,4.8 41.9944,6.056 41.9944,7.6 C41.9944,9.144 40.7384,10.4 39.1944,10.4 C37.6504,10.4 36.3944,9.144 36.3944,7.6 C36.3944,6.056 37.6512,4.8 39.1944,4.8 L39.1944,4.8 Z" id="Shape"></path>
                    <path d="M9.9944,24.8 C7.3472,24.8 5.1944,26.9528 5.1944,29.6 C5.1944,32.2472 7.3472,34.4 9.9944,34.4 C12.6416,34.4 14.7944,32.2472 14.7944,29.6 C14.7944,26.9528 12.6416,24.8 9.9944,24.8 L9.9944,24.8 Z M9.9944,32.8 C8.2296,32.8 6.7944,31.3648 6.7944,29.6 C6.7944,27.8352 8.2296,26.4 9.9944,26.4 C11.7592,26.4 13.1944,27.8352 13.1944,29.6 C13.1944,31.3648 11.7592,32.8 9.9944,32.8 L9.9944,32.8 Z" id="Shape"></path>
                </g>
            </g>
        </g>
    </g>
</svg>