<?xml version="1.0" encoding="UTF-8" standalone="no"?>
<svg width="54px" height="48px" viewBox="0 0 54 48" version="1.1" xmlns="http://www.w3.org/2000/svg" xmlns:xlink="http://www.w3.org/1999/xlink">
    <!-- Generator: Sketch 3.8.1 (29687) - http://www.bohemiancoding.com/sketch -->
    <title>salad</title>
    <desc>Created with Sketch.</desc>
    <defs></defs>
    <g id="Page-1" stroke="none" stroke-width="1" fill="none" fill-rule="evenodd">
        <g id="Desktop-HD" transform="translate(-634.000000, -591.000000)" fill="#000000">
            <g id="salad" transform="translate(634.000000, 591.000000)">
                <g id="Capa_1">
                    <g id="Group">
                        <path d="M53.04,22.9648302 C52.6351698,22.5319245 52.0646038,22.2837736 51.4741132,22.2837736 L51.2984151,22.2837736 C52.0944906,20.9135094 52.5273962,19.3575849 52.5273962,17.7554717 C52.5273962,14.1427925 50.3664906,10.890566 47.0861887,9.46143396 C47.0092075,4.53464151 42.9826415,0.547924528 38.0377358,0.547924528 C33.0937358,0.547924528 29.0680755,4.53192453 28.9883774,9.45690566 C28.8036226,9.41343396 28.613434,9.38807547 28.4196226,9.38807547 C27.6144906,9.38807547 26.8564528,9.78113208 26.3936604,10.4386415 L26.1681509,10.7592453 C25.9824906,11.0218868 25.6338113,11.1169811 25.3421887,10.9811321 L24.9871698,10.8163019 C24.2563019,10.4757736 23.4040755,10.5156226 22.7058113,10.9177358 C22.0075472,11.3198491 21.5483774,12.0398491 21.4759245,12.8413585 L21.4406038,13.2316981 C21.4279245,13.3711698 21.3663396,13.5658868 21.2857358,13.7741887 C21.0783396,13.6754717 20.9298113,13.4726038 20.9080755,13.2307925 L20.8727547,12.8422642 C20.8039245,12.0815094 20.397283,11.4511698 19.8149434,11.0517736 L22.6650566,7.00709434 C23.2202264,6.21826415 23.4357736,5.25735849 23.2691321,4.30279245 C23.1033962,3.34641509 22.5781132,2.51411321 21.7901887,1.9589434 C20.1563774,0.808754717 17.8922264,1.2 16.7420377,2.83381132 L11.525434,10.2375849 C11.3515472,10.4848302 11.2229434,10.7529057 11.1169811,11.0282264 C11.0327547,11.0318491 10.9430943,11.0236981 10.850717,10.9811321 L10.4956981,10.8163019 C9.76483019,10.4775849 8.91079245,10.5165283 8.21433962,10.9186415 C7.51698113,11.3207547 7.05781132,12.0398491 6.98535849,12.8413585 L6.95003774,13.2316981 C6.9210566,13.5532075 6.66656604,13.8076981 6.3450566,13.8366792 L5.95562264,13.872 C5.15411321,13.9444528 4.43411321,14.4045283 4.032,15.1009811 C3.62898113,15.7992453 3.5909434,16.6514717 3.92966038,17.3841509 L4.09358491,17.7373585 C4.22943396,18.0307925 4.13615094,18.378566 3.87169811,18.5642264 L3.552,18.7897358 C2.89358491,19.2543396 2.5005283,20.0123774 2.5005283,20.8175094 C2.5005283,21.354566 2.68890566,21.8617358 3.00045283,22.2828679 L2.14913208,22.2828679 C1.55864151,22.2828679 0.988075472,22.5310189 0.583245283,22.9639245 C0.174792453,23.4004528 -0.0362264151,23.994566 0.00452830189,24.5913962 C0.540679245,32.5132075 5.57977358,36.4908679 12.9817358,40.0256604 C13.8076981,40.4205283 14.4896604,41.0762264 14.9035472,41.8750189 C15.3074717,42.6556981 15.2431698,43.6627925 14.7278491,44.5195472 C14.3393208,45.1643774 14.3284528,45.9405283 14.6988679,46.5962264 C15.069283,47.2519245 15.7394717,47.6422642 16.4920755,47.6422642 L37.1320755,47.6422642 C37.8846792,47.6422642 38.5548679,47.2510189 38.925283,46.5962264 C39.2956981,45.9405283 39.2848302,45.1643774 38.8872453,44.5032453 C38.3809811,43.6618868 38.3175849,42.6556981 38.7206038,41.8759245 C39.1335849,41.0771321 39.8155472,40.4205283 40.6424151,40.0256604 C48.042566,36.4908679 53.082566,32.5141132 53.6196226,24.5923019 C53.6594717,23.994566 53.4475472,23.4013585 53.04,22.9648302 L53.04,22.9648302 Z M50.7169811,17.7554717 C50.7169811,19.4037736 50.1509434,20.9968302 49.1157736,22.2837736 L44.3773585,22.2837736 L44.3773585,18.6611321 C44.3773585,18.1603019 43.9725283,17.7554717 43.4716981,17.7554717 C42.9708679,17.7554717 42.5660377,18.1603019 42.5660377,18.6611321 L42.5660377,22.2837736 L39.3681509,22.2837736 C39.4415094,22.1841509 39.5049057,22.0790943 39.5619623,21.9704151 C39.5646792,21.9658868 39.5683019,21.9613585 39.5710189,21.9568302 C39.650717,21.8028679 39.7077736,21.6380377 39.7539623,21.4704906 C39.7657358,21.4288302 39.7756981,21.3871698 39.7847547,21.3436981 C39.8218868,21.1716226 39.8481509,20.9968302 39.8481509,20.8175094 C39.8481509,20.0114717 39.4550943,19.2543396 38.7975849,18.7924528 L38.589283,18.6448302 C38.6617358,18.6403019 38.7314717,18.6285283 38.8030189,18.6230943 C38.9116981,18.6140377 39.0203774,18.6031698 39.1281509,18.5895849 C39.306566,18.5678491 39.4831698,18.5406792 39.6579623,18.5089811 C39.7612075,18.4899623 39.8653585,18.4727547 39.9676981,18.4501132 C40.1560755,18.4093585 40.3417358,18.3586415 40.5255849,18.3061132 C40.608,18.282566 40.6913208,18.2635472 40.7728302,18.237283 C41.0309434,18.1548679 41.2836226,18.0633962 41.5308679,17.9592453 C41.5996981,17.9302642 41.6649057,17.8958491 41.7319245,17.8650566 C41.9112453,17.7844528 42.0896604,17.7011321 42.2626415,17.6087547 C42.3595472,17.5571321 42.4537358,17.5009811 42.5479245,17.4457358 C42.6864906,17.3651321 42.8241509,17.2836226 42.9581887,17.1957736 C43.0578113,17.130566 43.1556226,17.0635472 43.2525283,16.994717 C43.3747925,16.9077736 43.4952453,16.8172075 43.6129811,16.7248302 C43.7098868,16.6487547 43.8058868,16.5735849 43.8991698,16.4938868 C44.010566,16.3987925 44.1165283,16.2991698 44.2233962,16.1995472 C44.3148679,16.1144151 44.4072453,16.0301887 44.4950943,15.941434 C44.5956226,15.8390943 44.6889057,15.7304151 44.784,15.6235472 C44.9642264,15.4215849 45.1344906,15.2123774 45.2966038,14.9941132 C45.3536604,14.9171321 45.4143396,14.8428679 45.4695849,14.7631698 C45.5683019,14.6209811 45.6588679,14.4733585 45.749434,14.3266415 C45.794717,14.2523774 45.8418113,14.1790189 45.885283,14.1029434 C45.9767547,13.9444528 46.0609811,13.7823396 46.1424906,13.6184151 C46.1741887,13.5532075 46.2058868,13.4889057 46.2366792,13.4227925 C46.3209057,13.242566 46.3996981,13.0605283 46.4721509,12.8739623 C46.4875472,12.8341132 46.5020377,12.7924528 46.5165283,12.7526038 C46.6804528,12.3115472 46.8199245,11.858717 46.9141132,11.3895849 C49.2271698,12.6403019 50.7169811,15.0738113 50.7169811,17.7554717 L50.7169811,17.7554717 Z M38.0377358,2.35924528 C42.0326038,2.35924528 45.2830189,5.60966038 45.2830189,9.6045283 C45.2830189,9.74128302 45.2712453,9.87532075 45.2630943,10.0102642 C45.2630943,10.0102642 45.2603774,10.0156981 45.2603774,10.0193208 C45.2069434,10.9711698 44.9696604,11.8704906 44.5856604,12.6864906 C44.5820377,12.6946415 44.5784151,12.7027925 44.5747925,12.7109434 C44.4860377,12.8984151 44.3882264,13.0795472 44.2840755,13.2579623 C44.2713962,13.2796981 44.2596226,13.301434 44.2469434,13.3231698 C44.1500377,13.485283 44.0449811,13.6428679 43.9353962,13.7959245 C43.9118491,13.829434 43.8892075,13.8629434 43.8656604,13.8955472 C43.7633208,14.0350189 43.6537358,14.1690566 43.541434,14.3003774 C43.5061132,14.3420377 43.4716981,14.3846038 43.4354717,14.4253585 C43.3295094,14.5449057 43.2172075,14.6581132 43.1030943,14.7704151 C43.056,14.8175094 43.0098113,14.8646038 42.9609057,14.9107925 C42.8522264,15.0122264 42.7381132,15.1073208 42.6230943,15.2024151 C42.5642264,15.2513208 42.5062642,15.3011321 42.4455849,15.3473208 C42.3341887,15.4324528 42.2191698,15.5121509 42.1032453,15.5918491 C42.0335094,15.6398491 41.9646792,15.6887547 41.8922264,15.7340377 C41.7790189,15.8055849 41.6621887,15.8698868 41.5453585,15.9350943 C41.4656604,15.9794717 41.3859623,16.0256604 41.3044528,16.0673208 C41.1903396,16.125283 41.0726038,16.1769057 40.9557736,16.2285283 C40.8661132,16.2683774 40.7773585,16.3100377 40.6858868,16.3453585 C40.5708679,16.3906415 40.4531321,16.4295849 40.3353962,16.4685283 C40.2366792,16.5020377 40.1397736,16.5364528 40.0392453,16.565434 C39.9251321,16.5989434 39.8073962,16.6243019 39.690566,16.6514717 C39.5827925,16.6768302 39.4759245,16.704 39.3663396,16.7248302 C39.2531321,16.7456604 39.1381132,16.7592453 39.024,16.7755472 C38.9071698,16.7918491 38.7912453,16.8090566 38.6735094,16.8199245 C38.6508679,16.8217358 38.6273208,16.8217358 38.6037736,16.8235472 L38.6037736,16.8226415 C38.6055849,16.8108679 38.6055849,16.8 38.6073962,16.7882264 C38.637283,16.6243019 38.6472453,16.458566 38.6436226,16.2928302 C38.642717,16.2393962 38.6363774,16.1877736 38.6318491,16.1343396 C38.6209811,16.0039245 38.5992453,15.8762264 38.5684528,15.749434 C38.5557736,15.698717 38.5458113,15.648 38.5295094,15.5981887 C38.4760755,15.4279245 38.4099623,15.2603774 38.3184906,15.1027925 C37.9154717,14.405434 37.1963774,13.9462642 36.3948679,13.8738113 L36.0045283,13.8384906 C35.7645283,13.8167547 35.5616604,13.6691321 35.4620377,13.4608302 L37.397434,11.5263396 C37.7515472,11.1722264 37.7515472,10.5998491 37.397434,10.2457358 C37.0433208,9.89162264 36.4709434,9.89162264 36.1168302,10.2457358 L34.8244528,11.5381132 C34.6333585,11.2963019 34.4087547,11.0789434 34.1352453,10.9204528 C33.9523019,10.8144906 33.7575849,10.7375094 33.5583396,10.6822642 C33.4913208,10.6632453 33.4233962,10.661434 33.3554717,10.6487547 C33.2196226,10.6224906 33.0855849,10.5980377 32.9479245,10.5953208 C32.930717,10.5953208 32.9135094,10.5880755 32.8963019,10.5880755 C32.7921509,10.5880755 32.6898113,10.608 32.586566,10.6215849 C32.5222642,10.6297358 32.4579623,10.6297358 32.394566,10.6424151 C32.2098113,10.6804528 32.0286792,10.7366038 31.8538868,10.8172075 L31.5006792,10.9811321 C31.4101132,11.0227925 31.3141132,11.0390943 31.2172075,11.0354717 C31.2117736,11.0354717 31.2072453,11.034566 31.2018113,11.034566 C31.106717,11.0282264 31.0116226,11.0019623 30.9246792,10.9539623 C30.8368302,10.4956981 30.7924528,10.0428679 30.7924528,9.6045283 C30.7924528,5.60966038 34.0419623,2.35924528 38.0377358,2.35924528 L38.0377358,2.35924528 Z M23.2446792,13.3956226 L23.28,13.005283 C23.2990189,12.7861132 23.4203774,12.5968302 23.6114717,12.4872453 C23.8016604,12.3776604 24.0262642,12.3658868 24.2255094,12.4600755 L24.5823396,12.6258113 C25.6682264,13.1275472 26.9596981,12.7806792 27.6489057,11.8034717 L27.8744151,11.4828679 C28.1289057,11.1215094 28.7139623,11.1242264 28.9666415,11.4819623 L29.1921509,11.802566 C29.6540377,12.4573585 30.3858113,12.8205283 31.1456604,12.8431698 L31.1719245,12.8431698 C31.2815094,12.8449811 31.392,12.8431698 31.5015849,12.8304906 C31.5532075,12.8250566 31.6039245,12.813283 31.6555472,12.8042264 C31.7298113,12.7906415 31.8031698,12.7806792 31.8765283,12.7607547 C32.0069434,12.725434 32.1355472,12.6810566 32.2605283,12.6230943 L32.6146415,12.4582642 C32.8147925,12.3658868 33.0393962,12.3758491 33.2286792,12.485434 C33.4188679,12.5959245 33.5402264,12.7843019 33.5592453,13.0043774 L33.594566,13.3929057 C33.7032453,14.586566 34.6478491,15.5320755 35.8406038,15.6389434 L36.2300377,15.6742642 C36.4501132,15.693283 36.6393962,15.8146415 36.7489811,16.0057358 C36.8594717,16.1959245 36.869434,16.4205283 36.7770566,16.6188679 L36.6104151,16.9775094 C36.6031698,16.9938113 36.6004528,17.0083019 36.5941132,17.0246038 C36.2716981,17.7636226 36.338717,18.5850566 36.7209057,19.2498113 C36.7263396,19.2588679 36.7317736,19.2688302 36.7372075,19.2778868 C36.7861132,19.3603019 36.8377358,19.4390943 36.8966038,19.5160755 C36.9283019,19.5586415 36.9636226,19.5975849 36.9980377,19.6383396 C37.0424151,19.6890566 37.0849811,19.7415849 37.1338868,19.7886792 C37.2262642,19.8801509 37.3249811,19.9661887 37.4336604,20.0422642 L37.7551698,20.2695849 C37.9344906,20.3981887 38.0377358,20.597434 38.0377358,20.8175094 C38.0377358,21.0375849 37.9344906,21.2359245 37.7551698,21.362717 L37.4327547,21.5891321 C37.4300377,21.5909434 37.4282264,21.5936604 37.4246038,21.5963774 C37.3068679,21.6806038 37.1990943,21.7756981 37.098566,21.8789434 C37.058717,21.9196981 37.0243019,21.9658868 36.9871698,22.0093585 C36.9328302,22.0736604 36.8793962,22.1388679 36.8323019,22.2086038 C36.8141887,22.2348679 36.7906415,22.2575094 36.773434,22.2846792 L24.8775849,22.2846792 C24.9509434,22.1850566 25.0143396,22.0790943 25.0723019,21.9704151 C25.0750189,21.9658868 25.0777358,21.9622642 25.0804528,21.9577358 C25.1601509,21.8028679 25.2181132,21.6380377 25.2643019,21.4695849 C25.2760755,21.4279245 25.2851321,21.3871698 25.2941887,21.3455094 C25.3322264,21.1743396 25.3575849,20.9995472 25.3584906,20.8211321 L25.3584906,20.8193208 L25.3584906,20.8193208 L25.3584906,20.8193208 C25.3584906,20.7033962 25.3331321,20.5929057 25.3177358,20.4796981 C25.3059623,20.3963774 25.3077736,20.3103396 25.2869434,20.2288302 C25.2208302,19.9589434 25.0949434,19.7116981 24.9446038,19.4798491 C24.7743396,19.2181132 24.5687547,18.9781132 24.3070189,18.7933585 L23.9864151,18.5669434 C23.7228679,18.381283 23.6304906,18.0344151 23.765434,17.7427925 L23.9311698,17.3868679 C24.0117736,17.2129811 24.0670189,17.0309434 24.1050566,16.8461887 C24.1168302,16.7909434 24.1168302,16.7356981 24.1240755,16.6804528 C24.1421887,16.5500377 24.1557736,16.4205283 24.1530566,16.2901132 C24.1512453,16.2221887 24.1403774,16.1551698 24.1331321,16.0872453 C24.1204528,15.9704151 24.1050566,15.8544906 24.0760755,15.7403774 C24.0570566,15.6661132 24.0316981,15.5954717 24.0063396,15.5230189 C23.9846038,15.4632453 23.9737358,15.4007547 23.9483774,15.3418868 C23.9329811,15.306566 23.9058113,15.2803019 23.8886038,15.2467925 C23.8659623,15.2006038 23.8541887,15.1507925 23.8288302,15.1055094 C23.7808302,15.0230943 23.7156226,14.9551698 23.658566,14.8790943 C23.6114717,14.8156981 23.5698113,14.7495849 23.517283,14.690717 C23.4076981,14.5684528 23.282717,14.4643019 23.1523019,14.3673962 C23.1133585,14.3384151 23.0843774,14.2976604 23.0436226,14.2713962 C23.1378113,13.9960755 23.2175094,13.6935849 23.2446792,13.3956226 L23.2446792,13.3956226 Z M18.2236981,3.87803774 C18.7987925,3.06113208 19.9317736,2.86550943 20.7477736,3.44060377 C21.1408302,3.71773585 21.4034717,4.13433962 21.4858868,4.6125283 C21.5683019,5.09162264 21.4623396,5.5725283 21.1852075,5.96467925 L17.6522264,10.9784151 C17.6522264,10.9784151 17.6513208,10.9784151 17.6513208,10.9793208 L15.9676981,13.3675472 C15.690566,13.7615094 15.2748679,14.0241509 14.7966792,14.106566 C14.3193962,14.1862642 13.8375849,14.0830189 13.4445283,13.8049811 C13.442717,13.8040755 13.4418113,13.8022642 13.44,13.8013585 C13.3104906,13.7098868 13.2018113,13.5984906 13.1030943,13.4807547 C13.0777358,13.4508679 13.0541887,13.4191698 13.0306415,13.3874717 C12.9446038,13.2688302 12.8703396,13.1429434 12.8150943,13.008 C12.8114717,12.9989434 12.8060377,12.9916981 12.8024151,12.9826415 C12.7471698,12.8395472 12.7163774,12.6883019 12.6982642,12.5343396 C12.6937358,12.4953962 12.6919245,12.4564528 12.6892075,12.4175094 C12.6810566,12.2635472 12.6855849,12.1068679 12.7181887,11.9501887 C12.768,11.7129057 12.8630943,11.4855849 13.0061887,11.282717 L18.2236981,3.87803774 L18.2236981,3.87803774 Z M4.91501887,21.5882264 L4.59441509,21.362717 C4.41418868,21.2359245 4.3109434,21.0375849 4.3109434,20.8166038 C4.3109434,20.5956226 4.41418868,20.397283 4.59441509,20.2695849 L4.91320755,20.0449811 C5.89403774,19.3557736 6.24,18.0652075 5.73645283,16.9747925 L5.5725283,16.6215849 C5.47924528,16.421434 5.49011321,16.1968302 5.59969811,16.0057358 C5.71018868,15.8155472 5.89856604,15.6941887 6.11864151,15.6751698 L6.50716981,15.6398491 C7.70083019,15.5329811 8.64543396,14.5883774 8.75411321,13.394717 L8.78943396,13.0043774 C8.80845283,12.7852075 8.92981132,12.5968302 9.12,12.4863396 C9.30928302,12.3767547 9.53479245,12.3667925 9.73403774,12.4591698 L10.0908679,12.6249057 C10.3498868,12.7444528 10.6243019,12.8141887 10.9032453,12.8359245 C10.9059623,12.8549434 10.9141132,12.8739623 10.9177358,12.8929811 C10.9204528,12.909283 10.9186415,12.9255849 10.9213585,12.9409811 C10.9394717,13.0442264 10.9775094,13.1393208 11.0037736,13.2398491 C11.034566,13.3566792 11.0581132,13.4753208 11.0997736,13.589434 C11.1495849,13.7234717 11.2184151,13.8475472 11.282717,13.9743396 C11.3261887,14.0594717 11.3596981,14.1473208 11.4104151,14.2288302 C11.4991698,14.3728302 11.6078491,14.5032453 11.7165283,14.6336604 C11.762717,14.6889057 11.7989434,14.7495849 11.8478491,14.8021132 C12.0144906,14.978717 12.1983396,15.1417358 12.4012075,15.2839245 C12.5796226,15.4098113 12.7698113,15.5130566 12.9636226,15.6036226 C13.0252075,15.6316981 13.0876981,15.6543396 13.1510943,15.6787925 C13.2896604,15.7340377 13.4300377,15.7811321 13.5740377,15.8182642 C13.6464906,15.837283 13.7180377,15.8553962 13.7923019,15.8689811 C13.9453585,15.8988679 14.1002264,15.9160755 14.2569057,15.9260377 C14.3157736,15.9296604 14.3728302,15.938717 14.4316981,15.9396226 C14.4470943,15.9396226 14.4615849,15.9432453 14.4769811,15.9432453 C14.6861887,15.9432453 14.8963019,15.9251321 15.1064151,15.8889057 C16.0618868,15.7222642 16.8941887,15.1969811 17.4493585,14.4090566 L18.7815849,12.5180377 C18.9328302,12.618566 19.0496604,12.7815849 19.0695849,13.0043774 L19.1049057,13.3929057 C19.2135849,14.586566 20.1581887,15.5311698 21.3509434,15.6389434 L21.7403774,15.6742642 C21.8255094,15.6815094 21.8997736,15.7168302 21.9722264,15.7521509 C22.0075472,15.7702642 22.0428679,15.786566 22.074566,15.8110189 C22.1234717,15.8472453 22.1633208,15.8943396 22.2004528,15.9432453 C22.224,15.9740377 22.2502642,16.0021132 22.2683774,16.037434 C22.3118491,16.122566 22.3426415,16.2122264 22.3471698,16.3046038 C22.3471698,16.3082264 22.3462642,16.3136604 22.3462642,16.317283 C22.3498868,16.418717 22.3308679,16.5219623 22.2864906,16.6179623 L22.1207547,16.9738868 C21.9314717,17.3823396 21.8626415,17.8188679 21.9015849,18.2418113 C21.9024906,18.2472453 21.9043019,18.2526792 21.9043019,18.2590189 C21.9178868,18.3939623 21.9405283,18.5270943 21.9758491,18.6584151 C22.1216604,19.2036226 22.4531321,19.6981132 22.9421887,20.0422642 L23.1622642,20.1971321 L23.2627925,20.2677736 C23.4439245,20.3990943 23.5471698,20.597434 23.5471698,20.8175094 C23.5471698,20.928 23.5218113,21.0321509 23.4729057,21.125434 C23.4593208,21.1526038 23.4303396,21.1689057 23.4122264,21.1942642 C23.3687547,21.2558491 23.3270943,21.3183396 23.2627925,21.3636226 L23.2510189,21.3717736 L22.941283,21.5891321 C22.8172075,21.6769811 22.7030943,21.7784151 22.5980377,21.8870943 C22.565434,21.9206038 22.5391698,21.9586415 22.509283,21.9930566 C22.4404528,22.0727547 22.3743396,22.1542642 22.3154717,22.2421132 C22.3055094,22.2566038 22.2919245,22.269283 22.2828679,22.2837736 L5.57524528,22.2837736 C5.40226415,22.0120755 5.17856604,21.7738868 4.91501887,21.5882264 L4.91501887,21.5882264 Z M39.8617358,38.3909434 C38.6816604,38.9542642 37.7053585,39.8961509 37.1112453,41.0436226 C36.4202264,42.378566 36.5062642,44.0621887 37.344,45.453283 C37.4055849,45.5565283 37.3802264,45.6470943 37.346717,45.7041509 C37.3141132,45.7612075 37.250717,45.8309434 37.1302642,45.8309434 L16.4920755,45.8309434 C16.3725283,45.8309434 16.3082264,45.7621132 16.2756226,45.7041509 C16.2430189,45.6470943 16.2167547,45.5565283 16.2883019,45.4369811 C17.1169811,44.061283 17.2030189,42.3776604 16.512,41.0418113 C15.9187925,39.8943396 14.9415849,38.9524528 13.7624151,38.3900377 C6.73901887,35.037283 2.29041509,31.538717 1.81222642,24.4700377 C1.80316981,24.3350943 1.86837736,24.2436226 1.90732075,24.2010566 C1.95260377,24.1521509 2.03139623,24.0950943 2.15003774,24.0950943 L4.99924528,24.0950943 L22.8606792,24.0950943 L37.3512453,24.0950943 L37.4083019,24.0950943 L49.5341887,24.0950943 L51.4750189,24.0950943 C51.5927547,24.0950943 51.6715472,24.1521509 51.7177358,24.2010566 C51.7566792,24.2436226 51.8218868,24.3341887 51.8119245,24.4700377 C51.3328302,31.538717 46.8842264,35.037283 39.8617358,38.3909434 L39.8617358,38.3909434 Z" id="Shape"></path>
                        <path d="M33.509434,39.4913208 L25.6238491,39.4913208 C25.1239245,39.4913208 24.7181887,39.8961509 24.7181887,40.3969811 C24.7181887,40.8978113 25.1239245,41.3026415 25.6238491,41.3026415 L33.509434,41.3026415 C34.0093585,41.3026415 34.4150943,40.8978113 34.4150943,40.3969811 C34.4150943,39.8961509 34.0093585,39.4913208 33.509434,39.4913208 L33.509434,39.4913208 Z" id="Shape"></path>
                        <path d="M19.9245283,41.3026415 L22.9910943,41.3026415 C23.4910189,41.3026415 23.8967547,40.8978113 23.8967547,40.3969811 C23.8967547,39.8961509 23.4910189,39.4913208 22.9910943,39.4913208 L19.9245283,39.4913208 C19.4246038,39.4913208 19.0188679,39.8961509 19.0188679,40.3969811 C19.0188679,40.8978113 19.4236981,41.3026415 19.9245283,41.3026415 L19.9245283,41.3026415 Z" id="Shape"></path>
                        <path d="M33.509434,42.2083019 L19.9245283,42.2083019 C19.4246038,42.2083019 19.0188679,42.6131321 19.0188679,43.1139623 C19.0188679,43.6147925 19.4246038,44.0196226 19.9245283,44.0196226 L33.509434,44.0196226 C34.0093585,44.0196226 34.4150943,43.6147925 34.4150943,43.1139623 C34.4150943,42.6131321 34.0093585,42.2083019 33.509434,42.2083019 L33.509434,42.2083019 Z" id="Shape"></path>
                        <path d="M36.1168302,8.96422642 C36.293434,9.14083019 36.525283,9.22958491 36.7571321,9.22958491 C36.9889811,9.22958491 37.2208302,9.14083019 37.397434,8.96422642 C37.7515472,8.61011321 37.7515472,8.03773585 37.397434,7.68362264 L34.8353208,5.12241509 C34.4812075,4.76830189 33.9088302,4.76830189 33.554717,5.12241509 C33.2006038,5.4765283 33.2006038,6.04890566 33.554717,6.40301887 L36.1168302,8.96422642 L36.1168302,8.96422642 Z" id="Shape"></path>
                        <path d="M41.2392453,14.0866415 C41.4158491,14.2632453 41.6476981,14.352 41.8795472,14.352 C42.1113962,14.352 42.3432453,14.2632453 42.5198491,14.0866415 C42.8739623,13.7325283 42.8730566,13.1601509 42.5198491,12.8060377 L39.9577358,10.2448302 C39.6036226,9.89071698 39.0312453,9.89071698 38.6771321,10.2448302 C38.3230189,10.5989434 38.3230189,11.1713208 38.6771321,11.525434 L41.2392453,14.0866415 L41.2392453,14.0866415 Z" id="Shape"></path>
                        <path d="M39.3183396,9.22958491 C39.5501887,9.22958491 39.7820377,9.14083019 39.9586415,8.96422642 L42.5207547,6.40301887 C42.8739623,6.04890566 42.8748679,5.4765283 42.5207547,5.12241509 C42.1666415,4.76830189 41.5942642,4.76830189 41.2401509,5.12241509 L38.6780377,7.68362264 C38.3239245,8.03773585 38.3239245,8.61011321 38.6780377,8.96422642 C38.8546415,9.14083019 39.0864906,9.22958491 39.3183396,9.22958491 L39.3183396,9.22958491 Z" id="Shape"></path>
                        <path d="M44.3773585,16.8498113 C44.3773585,17.3506415 44.7821887,17.7554717 45.2830189,17.7554717 L48.9056604,17.7554717 C49.4064906,17.7554717 49.8113208,17.3506415 49.8113208,16.8498113 C49.8113208,16.3489811 49.4064906,15.9441509 48.9056604,15.9441509 L45.2830189,15.9441509 C44.7821887,15.9441509 44.3773585,16.3489811 44.3773585,16.8498113 L44.3773585,16.8498113 Z" id="Shape"></path>
                        <path d="M27.6226415,17.3026415 C27.8544906,17.3026415 28.0863396,17.2138868 28.2629434,17.037283 L29.621434,15.6787925 C29.9755472,15.3246792 29.9755472,14.7523019 29.621434,14.3981887 C29.2673208,14.0440755 28.6949434,14.0440755 28.3408302,14.3981887 L26.9823396,15.7566792 C26.6282264,16.1107925 26.6282264,16.6831698 26.9823396,17.037283 C27.1589434,17.2138868 27.3907925,17.3026415 27.6226415,17.3026415 L27.6226415,17.3026415 Z" id="Shape"></path>
                        <path d="M31.9634717,19.301434 C32.1400755,19.4780377 32.3719245,19.5667925 32.6037736,19.5667925 C32.8356226,19.5667925 33.0674717,19.4780377 33.2440755,19.301434 C33.5981887,18.9473208 33.5981887,18.3749434 33.2440755,18.0208302 L32.3384151,17.1151698 C31.9843019,16.7610566 31.4119245,16.7610566 31.0578113,17.1151698 C30.7036981,17.469283 30.7036981,18.0416604 31.0578113,18.3957736 L31.9634717,19.301434 L31.9634717,19.301434 Z" id="Shape"></path>
                        <path d="M28.3408302,18.9264906 L27.4351698,19.8321509 C27.0810566,20.1862642 27.0810566,20.7586415 27.4351698,21.1127547 C27.6117736,21.2893585 27.8436226,21.3781132 28.0754717,21.3781132 C28.3073208,21.3781132 28.5391698,21.2893585 28.7157736,21.1127547 L29.621434,20.2070943 C29.9755472,19.8529811 29.9755472,19.2806038 29.621434,18.9264906 C29.2673208,18.5723774 28.6940377,18.5723774 28.3408302,18.9264906 L28.3408302,18.9264906 Z" id="Shape"></path>
                    </g>
                </g>
            </g>
        </g>
    </g>
</svg>