<?xml version="1.0" encoding="UTF-8" standalone="no"?>
<svg width="48px" height="48px" viewBox="0 0 48 48" version="1.1" xmlns="http://www.w3.org/2000/svg" xmlns:xlink="http://www.w3.org/1999/xlink">
    <!-- Generator: Sketch 3.7.2 (28276) - http://www.bohemiancoding.com/sketch -->
    <title>cogwheel</title>
    <desc>Created with Sketch.</desc>
    <defs></defs>
    <g id="Page-1" stroke="none" stroke-width="1" fill="none" fill-rule="evenodd">
        <g id="Desktop-HD" transform="translate(-335.000000, -331.000000)" fill="#000000">
            <g id="Настройки" transform="translate(335.000000, 331.000000)">
                <g id="cogwheel">
                    <g id="Capa_1">
                        <g id="Group">
                            <path d="M46.3532919,28.1226335 L43.3918012,26.2244969 C43.5309317,24.9623851 43.5508075,23.730087 43.4613665,22.5176646 L46.5321739,20.6294658 C47.7942857,19.8543106 48.3110559,18.304 47.7545342,16.9325714 L46.1346584,12.877913 C45.6775155,11.725118 44.5744099,10.9797764 43.3321739,10.9797764 C43.1135404,10.9797764 42.9048447,10.9996522 42.6862112,11.0493416 L39.2576398,11.7946832 C38.4924224,10.8307081 37.6278261,9.93629814 36.6837267,9.13132919 L37.5383851,5.62325466 C37.8762733,4.19219876 37.1508075,2.73132919 35.7992547,2.15493168 L31.8141615,0.445614907 C31.4365217,0.286608696 31.0390062,0.20710559 30.6315528,0.20710559 C29.6079503,0.20710559 28.6638509,0.723875776 28.0973913,1.58847205 C28.0973913,1.59840994 28.0874534,1.59840994 28.0874534,1.60834783 L26.2191304,4.58971429 C24.9669565,4.45058385 23.7247205,4.43070807 22.522236,4.52014907 L20.6340373,1.44934161 C20.0874534,0.564869565 19.1036025,0.00834782609 18.0501863,0.00834782609 C17.6626087,0.00834782609 17.2949068,0.0779130435 16.9371429,0.226981366 L12.8824845,1.84685714 C11.5110559,2.39344099 10.7458385,3.84437267 11.053913,5.28536646 L11.7992547,8.71393789 C10.7855901,9.50896894 9.86136646,10.4033789 9.03652174,11.3872298 L5.56819876,10.5524472 C5.33962733,10.4928199 5.10111801,10.4729441 4.8626087,10.4729441 C3.66012422,10.4729441 2.56695652,11.188472 2.09987578,12.2915776 L0.390559006,16.2866087 C-0.185838509,17.6381615 0.291180124,19.1984099 1.53341615,20.0033789 L4.53465839,21.9313292 C4.40546584,23.1536894 4.38559006,24.3959255 4.49490683,25.6480994 L1.45391304,27.4965466 C1.45391304,27.4965466 1.44397516,27.4965466 1.44397516,27.5064845 C0.241490683,28.2518261 -0.29515528,29.7623851 0.161987578,31.104 C0.171925466,31.1238758 0.181863354,31.1437516 0.181863354,31.1636273 L1.80173913,35.2182857 C2.26881988,36.3611429 3.36198758,37.1064845 4.6042236,37.1064845 C4.82285714,37.1064845 5.0315528,37.0866087 5.25018634,37.0369193 L8.7284472,36.2816398 C9.51354037,37.2555528 10.3880745,38.1499627 11.322236,38.9449938 L10.4874534,42.4133168 C10.1495652,43.8443727 10.8750311,45.3052422 12.2265839,45.8816398 L16.2216149,47.5909565 C16.5992547,47.7499627 16.9967702,47.8294658 17.4042236,47.8294658 C18.4278261,47.8294658 19.3719255,47.3126957 19.9383851,46.4480994 L21.8663354,43.4468571 C23.0886957,43.5760497 24.3309317,43.5959255 25.5831056,43.4866087 L27.4315528,46.5276025 C27.9781366,47.4120745 28.9619876,47.9685963 30.0154037,47.9685963 L30.0154037,47.9685963 C30.4029814,47.9685963 30.7706832,47.8990311 31.1284472,47.7499627 L35.1831056,46.130087 C36.5545342,45.5835031 37.3197516,44.1325714 37.011677,42.6915776 L36.2563975,39.2133168 C37.1806211,38.4679752 38.0452174,37.6331925 38.8203727,36.7189068 L42.3185093,37.5636273 C42.5470807,37.6232547 42.7855901,37.6431304 43.0240994,37.6431304 C44.2265839,37.6431304 45.3197516,36.9276025 45.7868323,35.8244969 L47.4961491,31.8394037 C48.0725466,30.4878509 47.595528,28.9276025 46.3532919,28.1226335 L46.3532919,28.1226335 Z M45.0216149,30.7859876 L43.3122981,34.7810186 C43.2626087,34.9002733 43.143354,34.9797764 43.0141615,34.9797764 C42.9843478,34.9797764 42.964472,34.9797764 42.9346584,34.9698385 L38.611677,33.9263602 C38.0949068,33.7971677 37.5582609,33.9859876 37.2402484,34.4033789 C36.2862112,35.6257391 35.1831056,36.7089689 33.9508075,37.6033789 C33.5234783,37.9213913 33.3147826,38.4580373 33.4340373,38.9748075 L34.3781366,43.277913 C34.4178882,43.4468571 34.3284472,43.5959255 34.1793789,43.6654907 L30.1247205,45.2853665 C30.0849689,45.2953043 30.0452174,45.3052422 30.0054658,45.3052422 L30.0054658,45.3052422 C29.9160248,45.3052422 29.7868323,45.2654907 29.7172671,45.146236 L27.4216149,41.3797764 C27.1731677,40.972323 26.7359006,40.7338137 26.2787578,40.7338137 C26.2191304,40.7338137 26.169441,40.7338137 26.1098137,40.7437516 C25.3843478,40.8331925 24.6489441,40.882882 23.9234783,40.882882 C23.0787578,40.882882 22.2240994,40.8133168 21.3992547,40.6841242 C20.8725466,40.6046211 20.3557764,40.8331925 20.0675776,41.2803975 L17.6824845,44.9872298 C17.5930435,45.1164224 17.4240994,45.1760497 17.2750311,45.1164224 L13.28,43.4071056 C13.1309317,43.3474783 13.0613665,43.188472 13.0911801,43.0294658 L14.1247205,38.7362981 C14.253913,38.219528 14.0551553,37.682882 13.637764,37.3549317 C12.4054658,36.4108323 11.3023602,35.277913 10.348323,33.9859876 C10.0303106,33.5586584 9.50360248,33.3599006 8.97689441,33.4692174 L4.67378882,34.4133168 C4.64397516,34.4232547 4.62409938,34.4232547 4.59428571,34.4232547 C4.48496894,34.4232547 4.34583851,34.3636273 4.28621118,34.214559 L2.67627329,30.1996522 C2.63652174,30.040646 2.69614907,29.8518261 2.8352795,29.772323 L6.59180124,27.4866087 C7.0489441,27.2083478 7.2973913,26.6915776 7.22782609,26.1648696 C7.01913043,24.5748075 7.03900621,22.9847453 7.28745342,21.4543106 C7.36695652,20.9276025 7.13838509,20.4108323 6.69118012,20.1226335 L2.98434783,17.7375404 C2.84521739,17.6480994 2.79552795,17.4791553 2.85515528,17.330087 L4.56447205,13.3449938 C4.61416149,13.2257391 4.73341615,13.146236 4.8626087,13.146236 C4.89242236,13.146236 4.91229814,13.146236 4.9421118,13.1561739 L9.2352795,14.1897143 C9.75204969,14.3189068 10.2986335,14.1201491 10.616646,13.6928199 C11.590559,12.4108323 12.7532919,11.2878509 14.0650932,10.3636273 C14.5023602,10.0555528 14.7209938,9.50896894 14.6017391,8.98226087 L13.6775155,4.71890683 C13.637764,4.54996273 13.727205,4.40089441 13.8762733,4.33132919 L17.9309317,2.71145342 C17.9706832,2.70151553 18.0104348,2.69157764 18.0501863,2.69157764 C18.1396273,2.69157764 18.2688199,2.73132919 18.348323,2.85058385 L20.6737888,6.64685714 C20.9520497,7.09406211 21.4688199,7.34250932 21.9855901,7.2729441 C23.4862112,7.08412422 25.0762733,7.104 26.6862112,7.3524472 C27.2129193,7.43195031 27.7396273,7.19344099 28.0278261,6.73629814 L30.3532919,3.03940373 C30.4427329,2.91021118 30.611677,2.85058385 30.7508075,2.91021118 L34.7359006,4.61952795 C34.8849689,4.67915528 34.9545342,4.83816149 34.9247205,4.9971677 L33.8812422,9.32014907 C33.7619876,9.82698137 33.9408696,10.3735652 34.3582609,10.6915776 C35.6104348,11.6654907 36.7036025,12.8083478 37.6178882,14.0704596 C37.9259627,14.5077267 38.4725466,14.7164224 38.9893168,14.5971677 L43.2526708,13.6729441 C43.2824845,13.6630062 43.3023602,13.6630062 43.3321739,13.6630062 C43.4414907,13.6630062 43.5806211,13.7226335 43.6402484,13.8717019 L45.2601242,17.9263602 C45.3197516,18.0754286 45.2601242,18.2543106 45.1209938,18.3338137 L41.3247205,20.6592795 C40.8775155,20.9375404 40.6290683,21.4543106 40.6986335,21.9710807 C40.8874534,23.4717019 40.8675776,25.061764 40.6191304,26.6717019 C40.5396273,27.1984099 40.7781366,27.7151801 41.2253416,28.0033789 L44.9023602,30.3586584 C45.0315528,30.4679752 45.0911801,30.6369193 45.0216149,30.7859876 L45.0216149,30.7859876 Z" id="Shape"></path>
                            <path d="M23.9632298,14.0605217 L23.8042236,14.0605217 C21.1806211,14.0605217 18.706087,15.0741863 16.8278261,16.9226335 C14.9495652,18.7710807 13.8961491,21.235677 13.8563975,23.8592795 C13.7768944,29.3449938 18.169441,33.8766708 23.6551553,33.9561739 L23.8141615,33.9561739 C26.437764,33.9561739 28.9122981,32.9425093 30.790559,31.0940621 C32.6688199,29.2456149 33.722236,26.7810186 33.7619876,24.1574161 C33.8414907,18.6717019 29.4489441,14.1400248 23.9632298,14.0605217 L23.9632298,14.0605217 Z M23.8141615,31.2729441 L23.7048447,31.2729441 C19.6998758,31.2133168 16.4899379,27.904 16.5495652,23.8990311 C16.6091925,19.9536894 19.8688199,16.7437516 23.8141615,16.7437516 L23.9234783,16.7437516 C27.9284472,16.8033789 31.1383851,20.1126957 31.0787578,24.1176646 C31.0091925,28.0630062 27.7595031,31.2729441 23.8141615,31.2729441 L23.8141615,31.2729441 Z" id="Shape"></path>
                        </g>
                    </g>
                </g>
            </g>
        </g>
    </g>
</svg>