<?xml version="1.0" encoding="UTF-8" standalone="no"?>
<svg width="42px" height="48px" viewBox="0 0 42 48" version="1.1" xmlns="http://www.w3.org/2000/svg" xmlns:xlink="http://www.w3.org/1999/xlink">
    <!-- Generator: Sketch 3.8.1 (29687) - http://www.bohemiancoding.com/sketch -->
    <title>shield</title>
    <desc>Created with Sketch.</desc>
    <defs></defs>
    <g id="Page-1" stroke="none" stroke-width="1" fill="none" fill-rule="evenodd">
        <g id="Desktop" transform="translate(-523.000000, -469.000000)" fill="#000000">
            <g id="shield" transform="translate(523.000000, 469.000000)">
                <g id="Capa_1">
                    <g id="Group">
                        <path d="M26.2683485,19.7078838 L18.1820415,27.7941909 L15.3139917,24.9161826 C14.7861909,24.3883817 13.9397178,24.3883817 13.411917,24.9161826 C12.8841162,25.4439834 12.8841162,26.2904564 13.411917,26.8182573 L17.2359834,30.6423237 C17.4949046,30.9012448 17.8434523,31.0406639 18.1820415,31.0406639 C18.5206307,31.0406639 18.8691784,30.9112033 19.1280996,30.6423237 L28.1604647,21.6099585 C28.6882656,21.0821577 28.6882656,20.2356846 28.1604647,19.7078838 C27.6426224,19.180083 26.7961494,19.180083 26.2683485,19.7078838 L26.2683485,19.7078838 Z" id="Shape"></path>
                        <path d="M41.5646141,15.953527 L41.5646141,9.57012448 C41.5646141,8.60414938 41.1861909,7.39917012 39.4036183,7.17012448 C39.025195,7.12033195 38.6467718,7.08049793 38.2783071,7.03070539 C37.1231203,6.90124481 36.0376432,6.77178423 34.9820415,6.53278008 C30.8592199,5.62655602 26.9056929,3.78423237 22.5239502,0.736929461 C21.9363983,0.328630705 21.4683485,-8.84493032e-16 20.8011286,-8.84493032e-16 C20.1339087,-8.84493032e-16 19.6459419,0.338589212 19.0882656,0.726970954 C13.2326639,4.77012448 7.93473859,6.82157676 2.42768465,7.16016598 C0.744697095,7.26970954 0.0177261411,8.04647303 0.0177261411,9.7593361 L0.0177261411,13.9120332 C0.00776763485,17.7460581 0.00776763485,21.7195021 0.0476016598,25.6232365 C0.057560166,26.9975104 0.236813278,28.4215768 0.565443983,29.8655602 C1.33224896,33.2215768 3.09490456,36.2589212 5.95299585,39.1369295 C9.58785062,42.8016598 14.1488465,45.639834 19.9048631,47.8107884 C20.1637842,47.9103734 20.4625394,47.960166 20.7712531,47.960166 C21.1496763,47.960166 21.5480166,47.8804979 21.8766473,47.7311203 C22.2152365,47.5817427 22.5538257,47.4423237 22.8924149,47.2929461 C24.3065228,46.6854772 25.7604647,46.0580913 27.1646141,45.3211618 C31.8152365,42.8614108 35.3206307,39.973444 37.8899253,36.4879668 C40.1505062,33.4207469 41.3156515,30.3435685 41.465029,27.0871369 C41.4949046,26.439834 41.5148216,25.7526971 41.5247801,24.9858921 L41.5247801,24.9460581 L41.5745726,18.4630705 L41.5745726,18.3834025 L41.5745726,18.2539419 L41.5646141,15.953527 L41.5646141,15.953527 Z M38.8758174,18.1244813 L38.8758174,18.1344398 L38.8758174,18.3136929 L38.8758174,18.373444 L38.8260249,24.6970954 L38.8260249,24.8962656 L38.8260249,24.9261411 C38.8160664,25.6829876 38.7961494,26.3502075 38.7762324,26.9775934 C38.6567303,29.6763485 37.6608797,32.2655602 35.7289295,34.8946058 C33.398639,38.0514523 30.192,40.6904564 25.9098423,42.9510373 C24.605278,43.6381743 23.1911701,44.2456432 21.8368133,44.833195 C21.4982241,44.9825726 21.1596349,45.1219917 20.8210456,45.2713693 L20.7911701,45.2713693 C15.4334938,43.239834 11.2011286,40.6207469 7.86502905,37.2448133 C5.37540249,34.7253112 3.84179253,32.1161826 3.19448963,29.2580913 C2.90569295,28.0033195 2.75631535,26.7684647 2.74635685,25.593361 C2.70652282,21.6995851 2.71648133,17.7460581 2.71648133,13.9120332 L2.71648133,9.82904564 C8.69158506,9.43070539 14.3778921,7.23983402 20.611917,2.93775934 C20.6617095,2.89792531 20.7314191,2.85809129 20.8011286,2.80829876 C20.8608797,2.84813278 20.9305892,2.89792531 20.9903402,2.93775934 C25.6011286,6.15435685 29.9928299,8.18589212 34.4044481,9.16182573 C35.5994689,9.42074689 36.8044481,9.56016598 37.9695934,9.69958506 C38.2783071,9.73941909 38.5770622,9.76929461 38.8758174,9.80912863 L38.8758174,15.8539419 L38.8758174,18.1244813 L38.8758174,18.1244813 Z" id="Shape"></path>
                    </g>
                </g>
            </g>
        </g>
    </g>
</svg>