<?xml version="1.0" encoding="UTF-8" standalone="no"?>
<svg width="56px" height="48px" viewBox="0 0 56 48" version="1.1" xmlns="http://www.w3.org/2000/svg" xmlns:xlink="http://www.w3.org/1999/xlink">
    <!-- Generator: Sketch 3.8.1 (29687) - http://www.bohemiancoding.com/sketch -->
    <title>shirt</title>
    <desc>Created with Sketch.</desc>
    <defs></defs>
    <g id="Page-1" stroke="none" stroke-width="1" fill="none" fill-rule="evenodd">
        <g id="Desktop" transform="translate(-913.000000, -303.000000)" fill="#000000">
            <g id="shirt" transform="translate(913.000000, 303.000000)">
                <g id="Capa_1">
                    <path d="M55.4313555,10.1341422 C55.2152417,9.21281517 54.5327773,8.63272038 53.9185592,8.16636967 C49.6872796,4.94741232 44.9100284,2.42229384 39.734673,0.659260664 C39.6891754,0.636511848 39.6436777,0.625137441 39.5868057,0.602388626 C39.5754313,0.602388626 39.2000758,0.477270142 38.6768531,0.306654028 C38.2901232,0.192909953 38.1081327,0.136037915 38.1081327,0.136037915 C37.9147678,0.0791658768 37.7100284,0.0564170616 37.5166635,0.0564170616 C36.4815924,0.0564170616 35.5943886,0.807127962 35.4123981,1.84219905 C35.18491,3.17300474 34.2067109,6.91518483 32.4778009,8.24599052 C31.112872,9.30381043 29.5545782,9.83840758 27.8370427,9.83840758 L27.7801706,9.83840758 L27.7574218,9.83840758 L27.7005498,9.83840758 C25.9830142,9.83840758 24.413346,9.30381043 23.0597915,8.24599052 C21.3422559,6.90381043 20.3640569,3.17300474 20.1251943,1.84219905 C19.9432038,0.807127962 19.0673744,0.0564170616 18.0209289,0.0564170616 C17.8161896,0.0564170616 17.6228246,0.0791658768 17.4294597,0.136037915 C17.4294597,0.136037915 17.2474692,0.192909953 16.8607393,0.306654028 C16.3375166,0.465895735 15.9735355,0.591014218 15.9621611,0.602388626 C15.9280379,0.613763033 15.8939147,0.625137441 15.8711659,0.636511848 C10.6616872,2.37679621 5.79344076,4.95878673 1.41429384,8.30286256 C-0.0643791469,9.42892891 -0.371488152,10.6914882 0.436094787,12.3976493 C1.9602654,15.6507299 3.13182938,18.1303507 4.24652133,20.4621043 C4.47400948,20.928455 5.14509953,22.3616303 6.98775355,22.3616303 C7.26073934,22.3616303 7.55647393,22.3275071 7.89770616,22.2706351 C9.44462559,21.9749005 10.9574218,21.6791659 12.5612133,21.3834313 C12.6067109,21.3720569 12.6635829,21.3606825 12.7090806,21.3493081 L12.7090806,26.1948057 L12.7090806,44.6327204 C12.7090806,46.7597346 13.8692701,47.9312986 15.98491,47.9312986 L27.3706919,47.9312986 L39.3934408,47.9312986 C41.6910711,47.9312986 42.805763,46.8052322 42.805763,44.4848531 L42.805763,21.3379336 L42.9877536,21.3720569 C44.534673,21.6677915 46.0474692,21.9521517 47.5602654,22.2365118 C47.9356209,22.3047583 48.2427299,22.3388815 48.5384645,22.3388815 L48.5384645,22.3388815 C50.3697441,22.3388815 51.0408341,20.9170806 51.2910711,20.3824834 C52.6105024,17.607128 53.8161896,15.0478863 54.9877536,12.5682654 C55.306237,11.8744265 55.6360948,11.0440948 55.4313555,10.1341422 L55.4313555,10.1341422 Z M52.2010237,11.2602085 C51.0294597,13.7398294 49.8237725,16.2990711 48.5043412,19.0744265 C48.4588436,19.1654218 48.4247204,19.2222938 48.4019716,19.2677915 C48.3337251,19.2564171 48.2427299,19.2450427 48.1176114,19.2222938 C46.6048152,18.9379336 45.092019,18.6421991 43.5450995,18.3578389 L41.5432038,17.9824834 C41.0996019,17.8914882 40.6332512,18.0166066 40.2806445,18.3123412 C39.9280379,18.6080758 39.7232986,19.0403033 39.7232986,19.4952796 L39.7232986,44.4962275 C39.7232986,44.6554692 39.7119242,44.7692133 39.7119242,44.8602085 C39.6323033,44.8715829 39.5299336,44.8715829 39.3820664,44.8715829 L27.3593175,44.8715829 L15.9735355,44.8715829 C15.8939147,44.8715829 15.8256682,44.8715829 15.7687962,44.8602085 C15.7687962,44.8033365 15.7574218,44.7237156 15.7574218,44.6327204 L15.7574218,26.1948057 L15.7574218,19.4952796 C15.7574218,19.0403033 15.5526825,18.6080758 15.2000758,18.3123412 C14.8474692,18.0166066 14.3811185,17.9028626 13.9375166,17.9824834 C13.2778009,18.1076019 12.6180853,18.2327204 11.9697441,18.3578389 C10.3659526,18.6649479 8.84178199,18.9493081 7.29486256,19.2564171 C7.2038673,19.2791659 7.13562085,19.2791659 7.07874882,19.2905403 C7.056,19.2564171 7.03325118,19.2109194 7.01050237,19.1540474 C5.90718483,16.8222938 4.73562085,14.342673 3.21145024,11.1009668 C3.16595261,11.0099716 3.14320379,10.9417251 3.12045498,10.8848531 C3.16595261,10.8507299 3.21145024,10.8052322 3.27969668,10.7597346 C7.40860664,7.6090237 12.0038673,5.18627488 16.9176114,3.54836019 C16.9517346,3.53698578 16.9744834,3.52561137 16.9972322,3.51423697 C17.0086066,3.51423697 17.0086066,3.51423697 17.019981,3.50286256 C17.0768531,3.48011374 17.1905972,3.44599052 17.32709,3.40049289 C17.7593175,5.2203981 18.8853839,8.89433175 21.1830142,10.6801137 C23.0939147,12.1701611 25.2891754,12.920872 27.7119242,12.920872 L27.7801706,12.920872 L27.8484171,12.920872 C30.2711659,12.920872 32.4664265,12.1701611 34.377327,10.6801137 C36.6863318,8.88295735 37.8010237,5.2203981 38.2332512,3.40049289 C38.3697441,3.44599052 38.4721137,3.48011374 38.5289858,3.50286256 C38.5744834,3.52561137 38.619981,3.53698578 38.6654787,3.5597346 C43.5564739,5.2203981 48.0607393,7.59764929 52.0531564,10.6232417 C52.2010237,10.7369858 52.292019,10.8166066 52.3602654,10.8734787 C52.3375166,10.9530995 52.2806445,11.078218 52.2010237,11.2602085 L52.2010237,11.2602085 Z" id="Shape"></path>
                </g>
            </g>
        </g>
    </g>
</svg>