<?xml version="1.0" encoding="UTF-8" standalone="no"?>
<svg width="39px" height="48px" viewBox="0 0 39 48" version="1.1" xmlns="http://www.w3.org/2000/svg" xmlns:xlink="http://www.w3.org/1999/xlink">
    <!-- Generator: Sketch 3.8.1 (29687) - http://www.bohemiancoding.com/sketch -->
    <title>shopping-bag-2</title>
    <desc>Created with Sketch.</desc>
    <defs></defs>
    <g id="Page-1" stroke="none" stroke-width="1" fill="none" fill-rule="evenodd">
        <g id="Desktop" transform="translate(-853.000000, -631.000000)" fill="#000000">
            <g id="shopping-bag-2" transform="translate(853.000000, 631.000000)">
                <g id="Capa_1">
                    <path d="M38.3355372,41.5239669 L35.5785124,10.4528926 C35.5289256,9.83801653 35.0132231,9.37190083 34.3884298,9.37190083 L28.5768595,9.37190083 C28.5669421,4.20495868 24.3619835,-2.81868193e-15 19.1950413,-2.81868193e-15 C14.0280992,-2.81868193e-15 9.8231405,4.20495868 9.81322314,9.37190083 L4.00165289,9.37190083 C3.38677686,9.37190083 2.87107438,9.83801653 2.81157025,10.4528926 L0.0545454545,41.5239669 L0.0545454545,41.6330579 C0.0545454545,45.0942149 3.23801653,47.9107438 7.14545455,47.9107438 L31.2446281,47.9107438 C35.1520661,47.9107438 38.3355372,45.0942149 38.3355372,41.6330579 L38.3355372,41.5239669 L38.3355372,41.5239669 Z M19.1950413,2.38016529 C23.0528926,2.38016529 26.1867769,5.51404959 26.1966942,9.37190083 L12.1933884,9.37190083 C12.2033058,5.51404959 15.3371901,2.38016529 19.1950413,2.38016529 L19.1950413,2.38016529 Z M31.2446281,45.5206612 L7.14545455,45.5206612 C4.56694215,45.5206612 2.46446281,43.8049587 2.43471074,41.6727273 L5.09256198,11.7520661 L9.81322314,11.7520661 L9.81322314,15.9272727 C9.81322314,16.5818182 10.3487603,17.1173554 11.0033058,17.1173554 C11.6578512,17.1173554 12.1933884,16.5818182 12.1933884,15.9272727 L12.1933884,11.7520661 L26.1966942,11.7520661 L26.1966942,15.9272727 C26.1966942,16.5818182 26.7322314,17.1173554 27.3867769,17.1173554 C28.0413223,17.1173554 28.5768595,16.5818182 28.5768595,15.9272727 L28.5768595,11.7520661 L33.2975207,11.7520661 L35.9553719,41.6826446 C35.9256198,43.8049587 33.8231405,45.5206612 31.2446281,45.5206612 L31.2446281,45.5206612 Z" id="Shape"></path>
                </g>
            </g>
        </g>
    </g>
</svg>