<?xml version="1.0" encoding="UTF-8" standalone="no"?>
<svg width="55px" height="48px" viewBox="0 0 55 48" version="1.1" xmlns="http://www.w3.org/2000/svg" xmlns:xlink="http://www.w3.org/1999/xlink">
    <!-- Generator: Sketch 3.8.1 (29687) - http://www.bohemiancoding.com/sketch -->
    <title>speech-bubble-1</title>
    <desc>Created with Sketch.</desc>
    <defs></defs>
    <g id="Page-1" stroke="none" stroke-width="1" fill="none" fill-rule="evenodd">
        <g id="Desktop" transform="translate(-309.000000, -517.000000)" fill="#000000">
            <g id="speech-bubble-1" transform="translate(309.000000, 517.000000)">
                <g id="Capa_1">
                    <g id="Group">
                        <path d="M46.4788732,0.0845070423 L7.87605634,0.0845070423 C3.53802817,0.0845070423 0,3.61126761 0,7.96056338 L0,31.5211268 C0,35.8591549 3.52676056,39.3971831 7.87605634,39.3971831 L11.3352113,39.3971831 L11.3352113,46.4394366 C11.3352113,47.0140845 11.6619718,47.5323944 12.1690141,47.7915493 C12.3830986,47.9042254 12.6197183,47.9605634 12.856338,47.9605634 C13.171831,47.9605634 13.4873239,47.8591549 13.7577465,47.6676056 L25.1042254,39.3971831 L46.4788732,39.3971831 C50.8169014,39.3971831 54.3549296,35.8704225 54.3549296,31.5211268 L54.3549296,7.96056338 C54.3549296,3.61126761 50.8169014,0.0845070423 46.4788732,0.0845070423 L46.4788732,0.0845070423 Z M51.3126761,31.5098592 C51.3126761,34.1690141 49.1492958,36.343662 46.4788732,36.343662 L24.6084507,36.343662 C24.2816901,36.343662 23.9774648,36.4450704 23.7070423,36.6366197 L14.3774648,43.4422535 L14.3774648,37.8647887 C14.3774648,37.4591549 14.2197183,37.0760563 13.9267606,36.7943662 C13.6338028,36.5126761 13.2507042,36.343662 12.856338,36.343662 L7.87605634,36.343662 C5.21690141,36.343662 3.04225352,34.1802817 3.04225352,31.5098592 L3.04225352,7.96056338 C3.04225352,5.30140845 5.2056338,3.12676056 7.87605634,3.12676056 L46.4788732,3.12676056 C49.1380282,3.12676056 51.3126761,5.29014085 51.3126761,7.96056338 L51.3126761,31.5098592 L51.3126761,31.5098592 L51.3126761,31.5098592 Z" id="Shape"></path>
                        <path d="M40.6197183,10.3605634 L13.7352113,10.3605634 C12.8901408,10.3605634 12.2140845,11.0366197 12.2140845,11.8816901 C12.2140845,12.7267606 12.8901408,13.4028169 13.7352113,13.4028169 L40.6197183,13.4028169 C41.4647887,13.4028169 42.1408451,12.7267606 42.1408451,11.8816901 C42.1408451,11.0366197 41.4647887,10.3605634 40.6197183,10.3605634 L40.6197183,10.3605634 Z" id="Shape"></path>
                        <path d="M40.6197183,17.7295775 L13.7352113,17.7295775 C12.8901408,17.7295775 12.2140845,18.4056338 12.2140845,19.2507042 C12.2140845,20.0957746 12.8901408,20.771831 13.7352113,20.771831 L40.6197183,20.771831 C41.4647887,20.771831 42.1408451,20.0957746 42.1408451,19.2507042 C42.1408451,18.4056338 41.4647887,17.7295775 40.6197183,17.7295775 L40.6197183,17.7295775 Z" id="Shape"></path>
                        <path d="M40.6197183,25.0985915 L13.7352113,25.0985915 C12.8901408,25.0985915 12.2140845,25.7746479 12.2140845,26.6197183 C12.2140845,27.4647887 12.8901408,28.1408451 13.7352113,28.1408451 L40.6197183,28.1408451 C41.4647887,28.1408451 42.1408451,27.4647887 42.1408451,26.6197183 C42.1408451,25.7746479 41.4647887,25.0985915 40.6197183,25.0985915 L40.6197183,25.0985915 Z" id="Shape"></path>
                    </g>
                </g>
            </g>
        </g>
    </g>
</svg>