<?xml version="1.0" encoding="UTF-8" standalone="no"?>
<svg width="39px" height="48px" viewBox="0 0 39 48" version="1.1" xmlns="http://www.w3.org/2000/svg" xmlns:xlink="http://www.w3.org/1999/xlink">
    <!-- Generator: Sketch 3.7.2 (28276) - http://www.bohemiancoding.com/sketch -->
    <title>template</title>
    <desc>Created with Sketch.</desc>
    <defs></defs>
    <g id="Page-1" stroke="none" stroke-width="1" fill="none" fill-rule="evenodd">
        <g id="template" fill="#010002">
            <g id="Capa_1">
                <g id="Group">
                    <path d="M0.64555102,47.860898 L37.418449,47.860898 C37.7564082,47.860898 38.0306939,47.5866122 38.0306939,47.2486531 L38.0306939,16.9195102 C38.0306939,16.581551 37.7564082,16.3072653 37.418449,16.3072653 L21.5980408,16.3072653 L21.5980408,0.632816327 C21.5980408,0.294857143 21.3237551,0.0205714286 20.9857959,0.0205714286 L0.64555102,0.0205714286 C0.307591837,0.0205714286 0.0333061224,0.294857143 0.0333061224,0.632816327 L0.0333061224,47.2486531 C0.0333061224,47.5866122 0.307591837,47.860898 0.64555102,47.860898 L0.64555102,47.860898 Z M1.25779592,1.24506122 L20.373551,1.24506122 L20.373551,16.9195102 C20.373551,17.2574694 20.6478367,17.5317551 20.9857959,17.5317551 L36.8062041,17.5317551 L36.8062041,46.6364082 L1.25779592,46.6364082 L1.25779592,1.24506122 L1.25779592,1.24506122 Z" id="Shape"></path>
                    <path d="M23.4866939,14.997551 L37.4145306,14.997551 C37.7348571,14.997551 37.9954286,14.7399184 37.9954286,14.4235102 C37.9954286,14.2226939 37.8925714,14.0395102 37.7397551,13.9513469 L23.8981224,0.168489796 C23.7345306,0.00587755102 23.4808163,-0.0440816327 23.2653061,0.042122449 C23.0468571,0.131265306 22.9057959,0.339918367 22.9057959,0.573061224 L22.9057959,14.4235102 C22.9057959,14.7399184 23.1663673,14.997551 23.4866939,14.997551 L23.4866939,14.997551 Z M24.0666122,1.96604082 L36.0009796,13.8494694 L24.0666122,13.8494694 L24.0666122,1.96604082 L24.0666122,1.96604082 Z" id="Shape"></path>
                    <path d="M29.4298776,20.3970612 L8.61355102,20.3970612 C8.27559184,20.3970612 8.00130612,20.6713469 8.00130612,21.0093061 L8.00130612,29.9049796 C8.00130612,30.2429388 8.27559184,30.5172245 8.61355102,30.5172245 L29.4298776,30.5172245 C29.7678367,30.5172245 30.0421224,30.2429388 30.0421224,29.9049796 L30.0421224,21.0093061 C30.0421224,20.6713469 29.7678367,20.3970612 29.4298776,20.3970612 L29.4298776,20.3970612 Z M28.8176327,29.2927347 L9.22579592,29.2927347 L9.22579592,21.621551 L28.8176327,21.621551 L28.8176327,29.2927347 L28.8176327,29.2927347 Z" id="Shape"></path>
                    <path d="M25.7564082,32.8437551 L11.7972245,32.8437551 C11.4592653,32.8437551 11.1849796,33.1180408 11.1849796,33.456 C11.1849796,33.7939592 11.4592653,34.0682449 11.7972245,34.0682449 L25.7564082,34.0682449 C26.0943673,34.0682449 26.3686531,33.7939592 26.3686531,33.456 C26.3686531,33.1180408 26.0943673,32.8437551 25.7564082,32.8437551 L25.7564082,32.8437551 Z" id="Shape"></path>
                </g>
            </g>
        </g>
    </g>
</svg>