<?xml version="1.0" encoding="UTF-8" standalone="no"?>
<svg width="45px" height="48px" viewBox="0 0 45 48" version="1.1" xmlns="http://www.w3.org/2000/svg" xmlns:xlink="http://www.w3.org/1999/xlink">
    <!-- Generator: Sketch 3.8.1 (29687) - http://www.bohemiancoding.com/sketch -->
    <title>support</title>
    <desc>Created with Sketch.</desc>
    <defs></defs>
    <g id="Page-1" stroke="none" stroke-width="1" fill="none" fill-rule="evenodd">
        <g id="support" fill="#000000">
            <g id="Group">
                <path d="M18.1634211,23.3816842 C14.5948421,23.3816842 11.6916316,26.2850526 11.6916316,29.8534737 C11.6916316,33.4222105 14.595,36.3254211 18.1634211,36.3254211 C21.7321579,36.3252632 24.6353684,33.4218947 24.6353684,29.8534737 C24.6353684,26.2850526 21.7324737,23.3816842 18.1634211,23.3816842 L18.1634211,23.3816842 Z M18.1634211,33.957 C15.9007895,33.957 14.0600526,32.1161053 14.0600526,29.8534737 C14.0600526,27.5908421 15.9007895,25.7501053 18.1640526,25.7501053 C20.4263684,25.7501053 22.2669474,27.5908421 22.2669474,29.8534737 C22.2669474,32.1161053 20.4260526,33.957 18.1634211,33.957 L18.1634211,33.957 Z" id="Shape"></path>
                <path d="M38.7738947,0 L24.1831579,0 C21.2403158,0 18.8463158,2.39494737 18.8463158,5.33889474 L18.8463158,11.7483158 L15.7462105,11.7483158 C15.0920526,11.7483158 14.562,12.2783684 14.562,12.9325263 L14.562,14.9992105 C13.02,15.3701053 11.5616842,15.9745263 10.2069474,16.8041053 L8.74515789,15.3421579 C8.28268421,14.88 7.53284211,14.8796842 7.07052632,15.3421579 L3.65210526,18.7604211 C3.42994737,18.9825789 3.30521053,19.2836842 3.30521053,19.5978947 C3.30521053,19.9119474 3.42994737,20.2130526 3.65194737,20.4353684 L5.11389474,21.8973158 C4.28431579,23.2520526 3.68005263,24.7102105 3.30915789,26.2522105 L1.24247368,26.2522105 C0.588315789,26.2522105 0.0582631579,26.7822632 0.0582631579,27.4364211 L0.0582631579,32.2708421 C0.0582631579,32.925 0.588315789,33.4550526 1.24247368,33.4550526 L3.30915789,33.4550526 C3.68005263,34.9968947 4.28447368,36.4552105 5.11389474,37.8099474 L3.65194737,39.2717368 C3.18947368,39.7343684 3.18947368,40.4840526 3.65194737,40.9466842 L7.07036842,44.3651053 C7.533,44.8274211 8.28268421,44.8274211 8.74515789,44.3651053 L10.2069474,42.9031579 C11.5615263,43.7327368 13.02,44.337 14.562,44.7080526 L14.562,46.7747368 C14.562,47.4288947 15.0920526,47.9589474 15.7462105,47.9589474 L20.5806316,47.9589474 C21.2347895,47.9589474 21.7648421,47.4288947 21.7648421,46.7747368 L21.7648421,44.7080526 C23.307,44.337 24.7653158,43.7327368 26.1197368,42.9031579 L27.5818421,44.3651053 C28.0441579,44.8274211 28.794,44.8274211 29.2566316,44.3651053 L32.6750526,40.9466842 C32.8970526,40.7245263 33.0217895,40.4232632 33.0217895,40.1092105 C33.0217895,39.7951579 32.8970526,39.4940526 32.6750526,39.2717368 L31.2131053,37.8097895 C32.0425263,36.4552105 32.6469474,34.9967368 33.0178421,33.4550526 L35.0845263,33.4550526 C35.7386842,33.4550526 36.2687368,32.925 36.2687368,32.2708421 L36.2687368,27.4364211 C36.2687368,26.7822632 35.7386842,26.2522105 35.0845263,26.2522105 L33.0178421,26.2522105 C32.8850526,25.7006842 32.7189474,25.1613158 32.5266316,24.6322105 L34.7715789,23.0158421 L38.7740526,23.0158421 C41.7168947,23.0158421 44.1110526,20.6205789 44.1110526,17.6764737 L44.1110526,5.33889474 C44.1108947,2.39494737 41.7167368,0 38.7738947,0 L38.7738947,0 Z M30.8867368,27.6378947 C30.9849474,28.2056842 31.4774211,28.6204737 32.0537368,28.6204737 L33.9003158,28.6204737 L33.9003158,31.0864737 L32.0537368,31.0864737 C31.4775789,31.0864737 30.9849474,31.5012632 30.8867368,32.0690526 C30.5603684,33.9579474 29.8332632,35.7121579 28.7259474,37.2832105 C28.3940526,37.7538947 28.4493158,38.3954211 28.8565263,38.8027895 L30.1629474,40.1088947 L28.4191579,41.8526842 L27.1127368,40.5464211 C26.7053684,40.1390526 26.064,40.0839474 25.5931579,40.416 C24.0225789,41.5233158 22.2680526,42.2501053 20.379,42.5767895 C19.8112105,42.675 19.3964211,43.1674737 19.3964211,43.7437895 L19.3964211,45.5903684 L16.9304211,45.5903684 L16.9304211,43.7437895 C16.9304211,43.1676316 16.5156316,42.675 15.9478421,42.5767895 C14.0587895,42.2504211 12.3044211,41.5233158 10.7336842,40.416 C10.263,40.0839474 9.62163158,40.1388947 9.21394737,40.5464211 L7.90784211,41.8526842 L6.16405263,40.1088947 L7.47031579,38.8027895 C7.87752632,38.3954211 7.93278947,37.7538947 7.60089474,37.2832105 C6.49357895,35.7121579 5.76663158,33.9577895 5.44010526,32.0690526 C5.34189474,31.5012632 4.84942105,31.0864737 4.27310526,31.0864737 L2.42668421,31.0864737 L2.42668421,28.6204737 L4.27326316,28.6204737 C4.84942105,28.6204737 5.34205263,28.2056842 5.44026316,27.6378947 C5.76663158,25.7491579 6.49373684,23.9947895 7.60105263,22.4234211 C7.93294737,21.9525789 7.87768421,21.3112105 7.47047368,20.9038421 L6.16421053,19.5977368 L7.908,17.8541053 L9.21410526,19.1603684 C9.62178947,19.5677368 10.2631579,19.6228421 10.7336842,19.2907895 C12.3048947,18.1834737 14.0592632,17.4565263 15.948,17.13 C16.5157895,17.0317895 16.9305789,16.5393158 16.9305789,15.963 L16.9305789,14.1165789 L18.8464737,14.1165789 L18.8464737,17.6761579 C18.8464737,20.6202632 21.2404737,23.0155263 24.1833158,23.0155263 L25.3744737,23.0155263 L25.3744737,27.4698947 C25.3744737,27.9142105 25.6233158,28.3214211 26.0188421,28.5238421 C26.1890526,28.6111579 26.3741053,28.6541053 26.5585263,28.6541053 C26.8024737,28.6541053 27.0453158,28.5787895 27.2507368,28.4308421 L30.5163158,26.0794737 C30.6705789,26.5878947 30.795,27.1073684 30.8867368,27.6378947 L30.8867368,27.6378947 Z M41.7424737,17.6761579 C41.7424737,19.3143158 40.4107895,20.6471053 38.7738947,20.6471053 L34.3894737,20.6471053 C34.1411053,20.6471053 33.8992105,20.7251053 33.6974211,20.8703684 L27.7425789,25.158 L27.7425789,21.8313158 C27.7425789,21.1771579 27.2123684,20.6471053 26.5583684,20.6471053 L24.1831579,20.6471053 C22.5464211,20.6471053 21.2147368,19.3143158 21.2147368,17.6761579 L21.2147368,5.33889474 C21.2147368,3.70105263 22.5464211,2.36842105 24.1831579,2.36842105 L38.7738947,2.36842105 C40.4107895,2.36842105 41.7424737,3.70105263 41.7424737,5.33889474 L41.7424737,17.6761579 L41.7424737,17.6761579 Z" id="Shape"></path>
                <path d="M31.3465263,3.88989474 C28.6179474,3.88989474 26.3979474,6.10989474 26.3979474,8.83863158 C26.3979474,9.49263158 26.928,10.0228421 27.5821579,10.0228421 C28.2363158,10.0228421 28.7663684,9.49263158 28.7663684,8.83863158 C28.7663684,7.41584211 29.9237368,6.25831579 31.3465263,6.25831579 C32.7693158,6.25831579 33.9266842,7.41584211 33.9266842,8.83863158 C33.9266842,10.263 32.0856316,12.0857368 30.8673158,13.2918947 C30.744,13.4141053 30.6241579,13.5326842 30.5092105,13.6476316 C30.0467368,14.1102632 30.0467368,14.8599474 30.5092105,15.3224211 C30.7405263,15.5535789 31.0436842,15.6691579 31.3466842,15.6691579 C31.6496842,15.6691579 31.9528421,15.5535789 32.1841579,15.3224211 C32.2962632,15.2101579 32.4134211,15.0942632 32.5338947,14.9748947 C34.1213684,13.4033684 36.2952632,11.2507895 36.2952632,8.83863158 C36.2951053,6.10973684 34.0752632,3.88989474 31.3465263,3.88989474 L31.3465263,3.88989474 Z" id="Shape"></path>
                <path d="M31.0051579,16.6954737 C30.6309474,16.6954737 30.2644737,16.8470526 30.0009474,17.1123158 C29.7356842,17.376 29.5841053,17.7423158 29.5841053,18.1165263 C29.5841053,18.4907368 29.7356842,18.8570526 30.0009474,19.1223158 C30.2646316,19.386 30.6309474,19.5375789 31.0051579,19.5375789 C31.3793684,19.5375789 31.7455263,19.386 32.0109474,19.1223158 C32.2746316,18.8568947 32.4262105,18.4907368 32.4262105,18.1165263 C32.4262105,17.7423158 32.2746316,17.376 32.0109474,17.1123158 C31.7456842,16.8470526 31.3793684,16.6954737 31.0051579,16.6954737 L31.0051579,16.6954737 Z" id="Shape"></path>
            </g>
        </g>
    </g>
</svg>