<?xml version="1.0" encoding="UTF-8" standalone="no"?>
<svg width="52px" height="48px" viewBox="0 0 52 48" version="1.1" xmlns="http://www.w3.org/2000/svg" xmlns:xlink="http://www.w3.org/1999/xlink">
    <!-- Generator: Sketch 3.7.2 (28276) - http://www.bohemiancoding.com/sketch -->
    <title>users</title>
    <desc>Created with Sketch.</desc>
    <defs></defs>
    <g id="Page-1" stroke="none" stroke-width="1" fill="none" fill-rule="evenodd">
        <g id="users" fill="#000000">
            <g id="Capa_1">
                <path d="M47.1548571,37.1905714 L38.9665714,33.0968571 C38.1942857,32.7102857 37.7142857,31.9337143 37.7142857,31.0697143 L37.7142857,28.1717143 C37.9105714,27.9317143 38.1171429,27.6582857 38.3305714,27.3565714 C39.3925714,25.8565714 40.2437143,24.1868571 40.8625714,22.386 C42.072,21.8314286 42.8571429,20.6357143 42.8571429,19.2857143 L42.8571429,15.8571429 C42.8571429,15.0317143 42.5485714,14.232 42,13.6071429 L42,9.048 C42.048,8.57657143 42.2365714,5.77028571 40.2068571,3.45514286 C38.4462857,1.44685714 35.5894286,0.428571429 31.7142857,0.428571429 C27.8391429,0.428571429 24.9822857,1.44685714 23.2217143,3.45428571 C21.9917143,4.85742857 21.5777143,6.438 21.4525714,7.57285714 C19.9834286,6.81342857 18.252,6.42857143 16.2857143,6.42857143 C7.38085714,6.42857143 6.86228571,14.0185714 6.85714286,14.1428571 L6.85714286,18.0677143 C6.30171429,18.6728571 6,19.3714286 6,20.0648571 L6,23.0254286 C6,23.9502857 6.414,24.8125714 7.12371429,25.3954286 C7.83085714,28.0611429 9.57,30.0754286 10.2471429,30.7825714 L10.2471429,33.1337143 C10.2471429,33.8082857 9.88028571,34.4271429 9.24342857,34.7751429 L3.54085714,38.352 C1.35685714,39.5434286 0,41.8294286 0,44.3168571 L0,47.5714286 L12,47.5714286 L13.7142857,47.5714286 L51.4285714,47.5714286 L51.4285714,44.106 C51.4285714,41.1591429 49.7905714,38.5088571 47.1548571,37.1905714 L47.1548571,37.1905714 Z M12,43.9388571 L12,45.8571429 L1.71428571,45.8571429 L1.71428571,44.3168571 C1.71428571,42.4568571 2.72914286,40.7477143 4.40657143,39.8314286 L10.1082857,36.2545714 C11.2508571,35.6314286 11.9605714,34.4365714 11.9605714,33.1337143 L11.9605714,30.0557143 L11.688,29.8011429 C11.6657143,29.7805714 9.38828571,27.6291429 8.71542857,24.6968571 L8.63742857,24.3574286 L8.34428571,24.1688571 C7.95,23.9134286 7.71428571,23.4857143 7.71428571,23.0254286 L7.71428571,20.0648571 C7.71428571,19.7562857 7.92428571,19.3894286 8.28942857,19.0585714 L8.57142857,18.804 L8.56971429,14.1925714 C8.58514286,13.9465714 9.03171429,8.14285714 16.2857143,8.14285714 C18.3368571,8.14285714 20.064,8.61685714 21.4285714,9.552 L21.4285714,13.6071429 C20.88,14.232 20.5714286,15.0317143 20.5714286,15.8571429 L20.5714286,19.2857143 C20.5714286,19.5462857 20.6014286,19.8025714 20.658,20.0511429 C20.6811429,20.1505714 20.7274286,20.2414286 20.7591429,20.3374286 C20.8062857,20.4814286 20.844,20.6297143 20.91,20.766 C20.9108571,20.7677143 20.9117143,20.7685714 20.9125714,20.7702857 C21.132,21.2228571 21.4517143,21.6274286 21.8545714,21.9505714 C21.8588571,21.9668571 21.864,21.9814286 21.8682857,21.9968571 C21.9197143,22.1931429 21.9737143,22.3885714 22.032,22.5797143 L22.1014286,22.8034286 C22.1134286,22.8428571 22.128,22.8831429 22.1408571,22.9225714 C22.1708571,23.0151429 22.2,23.1068571 22.2308571,23.1977143 C22.2822857,23.3477143 22.3362857,23.5028571 22.3988571,23.6717143 C22.4254286,23.742 22.4545714,23.8054286 22.482,23.8748571 C22.5522857,24.054 22.6225714,24.2271429 22.6962857,24.3985714 C22.7142857,24.4397143 22.7297143,24.4842857 22.7477143,24.5245714 L22.7957143,24.6325714 C22.818,24.6822857 22.8411429,24.7268571 22.8634286,24.7757143 C22.9474286,24.9591429 23.0297143,25.1365714 23.1154286,25.308 C23.1291429,25.3354286 23.142,25.3654286 23.1557143,25.3928571 C23.2097143,25.5 23.2637143,25.6011429 23.3177143,25.704 C23.4102857,25.8805714 23.5011429,26.0468571 23.592,26.208 C23.6365714,26.2868571 23.6802857,26.364 23.724,26.4385714 C23.8474286,26.6494286 23.9648571,26.8431429 24.0788571,27.0231429 C24.1037143,27.0617143 24.1277143,27.102 24.1517143,27.1388571 C24.3591429,27.4602857 24.5391429,27.7208571 24.6882857,27.924 C24.7277143,27.978 24.762,28.0242857 24.7954286,28.0697143 C24.8142857,28.0945714 24.84,28.1305714 24.8562857,28.1528571 L24.8562857,30.9891429 C24.8562857,31.8188571 24.4037143,32.58 23.676,32.9777143 L21.408,34.2145714 L21.0128571,34.1794286 L20.8517143,34.518 L16.0294286,37.1485714 C13.5437143,38.5062857 12,41.1068571 12,43.9388571 L12,43.9388571 Z M49.7142857,45.8571429 L13.7142857,45.8571429 L13.7142857,43.9388571 C13.7142857,41.7351429 14.916,39.7097143 16.8505714,38.6554286 L24.4971429,34.4845714 C25.7768571,33.786 26.5714286,32.4462857 26.5714286,30.99 L26.5714286,27.546 L26.5714286,27.5451429 L26.4051429,27.3462857 L26.3725714,27.3077143 C26.3708571,27.3051429 26.3177143,27.2408571 26.2311429,27.1277143 C26.226,27.1208571 26.2208571,27.114 26.2148571,27.1071429 C26.1694286,27.048 26.1162857,26.9768571 26.0554286,26.892 C26.0545714,26.8902857 26.0537143,26.8894286 26.0528571,26.8877143 C25.9251429,26.7102857 25.7648571,26.4797143 25.5865714,26.202 C25.5822857,26.196 25.5788571,26.1891429 25.5745714,26.1831429 C25.4905714,26.052 25.4014286,25.9088571 25.3105714,25.7571429 C25.3037143,25.746 25.2968571,25.7348571 25.29,25.7228571 C25.0962857,25.398 24.8905714,25.0302857 24.6857143,24.6231429 C24.6857143,24.6231429 24.6848571,24.6222857 24.6848571,24.6214286 C24.576,24.4028571 24.4671429,24.1731429 24.3608571,23.934 L24.3608571,23.934 C24.3462857,23.9005714 24.3308571,23.868 24.3162857,23.8345714 L24.3162857,23.8345714 C24.2691429,23.7274286 24.222,23.6151429 24.174,23.4994286 C24.1568571,23.4574286 24.1397143,23.4137143 24.1225714,23.3708571 C24.078,23.2585714 24.0325714,23.1454286 23.9845714,23.016 C23.8971429,22.7828571 23.8148571,22.5394286 23.736,22.2882857 L23.6888571,22.1357143 C23.6837143,22.1185714 23.6777143,22.1014286 23.6725714,22.0834286 C23.592,21.8125714 23.5148571,21.5357143 23.4497143,21.2511429 L23.3717143,20.9117143 L23.0794286,20.7231429 C22.5822857,20.4025714 22.2857143,19.8651429 22.2857143,19.2857143 L22.2857143,15.8571429 C22.2857143,15.3762857 22.4897143,14.928 22.86,14.5928571 L23.1428571,14.3382857 L23.1428571,9 L23.1428571,8.69657143 L23.1197143,8.67857143 C23.0905714,8.05971429 23.1274286,6.16285714 24.5108571,4.58485714 C25.9311429,2.964 28.3551429,2.14285714 31.7142857,2.14285714 C35.0614286,2.14285714 37.4802857,2.958 38.9022857,4.56685714 C40.5711429,6.45342857 40.2951429,8.86714286 40.2934286,8.88771429 L40.2857143,14.3382857 L40.5685714,14.5937143 C40.9388571,14.928 41.1428571,15.3762857 41.1428571,15.8571429 L41.1428571,19.2857143 C41.1428571,20.034 40.6525714,20.6888571 39.924,20.9134286 L39.4971429,21.0445714 L39.36,21.4688571 C38.7865714,23.2525714 37.9697143,24.9 36.9308571,26.3657143 C36.6762857,26.7265714 36.4285714,27.0462857 36.2134286,27.2905714 L36,27.534 L36,31.0697143 C36,32.5868571 36.8425714,33.9505714 38.1994286,34.6294286 L46.3877143,38.7231429 C48.4397143,39.7491429 49.7142857,41.8114286 49.7142857,44.106 L49.7142857,45.8571429 L49.7142857,45.8571429 Z" id="Shape"></path>
            </g>
        </g>
    </g>
</svg>