<?xml version="1.0" encoding="UTF-8" standalone="no"?>
<svg width="37px" height="48px" viewBox="0 0 37 48" version="1.1" xmlns="http://www.w3.org/2000/svg" xmlns:xlink="http://www.w3.org/1999/xlink">
    <!-- Generator: Sketch 3.7.2 (28276) - http://www.bohemiancoding.com/sketch -->
    <title>user</title>
    <desc>Created with Sketch.</desc>
    <defs></defs>
    <g id="Page-1" stroke="none" stroke-width="1" fill="none" fill-rule="evenodd">
        <g id="user" fill="#000000">
            <path d="M32.8112,34.3112 L25.1688,30.4904 C24.448,30.1296 24,29.4048 24,28.5984 L24,25.8936 C24.1832,25.6696 24.376,25.4144 24.5752,25.1328 C25.5664,23.7328 26.3608,22.1744 26.9384,20.4936 C28.0672,19.976 28.8,18.86 28.8,17.6 L28.8,14.4 C28.8,13.6296 28.512,12.8832 28,12.3 L28,8.0448 C28.0448,7.6048 28.2208,4.9856 26.3264,2.8248 C24.6832,0.9504 22.0168,0 18.4,0 C14.7832,0 12.1168,0.9504 10.4736,2.824 C8.5792,4.9848 8.7552,7.6048 8.8,8.0448 L8.8,12.3 C8.288,12.8832 8,13.6296 8,14.4 L8,17.6 C8,18.5736 8.4424,19.4816 9.1976,20.0872 C9.9304,22.9888 11.464,25.1752 12,25.8768 L12,28.524 C12,29.2984 11.5776,30.0088 10.8984,30.38 L3.7616,34.2728 C1.4408,35.5392 0,37.9664 0,40.6096 L0,43.2 C0,46.9968 12.036,48 18.4,48 C24.764,48 36.8,46.9968 36.8,43.2 L36.8,40.7656 C36.8,38.0152 35.2712,35.5416 32.8112,34.3112 L32.8112,34.3112 Z M35.2,43.2 C35.2,44.2856 29.2704,46.4 18.4,46.4 C7.5296,46.4 1.6,44.2856 1.6,43.2 L1.6,40.6096 C1.6,38.5528 2.7216,36.6624 4.5272,35.6784 L11.664,31.7856 C12.8584,31.1336 13.6,29.8832 13.6,28.524 L13.6,25.3088 L13.4136,25.0864 C13.3944,25.0632 11.4336,22.6912 10.6856,19.4344 L10.6128,19.1176 L10.34,18.9416 C9.8768,18.6424 9.6,18.1408 9.6,17.6 L9.6,14.4 C9.6,13.9512 9.7904,13.5328 10.136,13.22 L10.4,12.9824 L10.4,8 L10.3928,7.8952 C10.3904,7.8736 10.1184,5.656 11.6768,3.8784 C13.0024,2.3664 15.2648,1.6 18.4,1.6 C21.524,1.6 23.7816,2.3608 25.1088,3.8624 C26.6664,5.6232 26.4088,7.876 26.4072,7.8952 L26.4,12.9824 L26.664,13.2208 C27.0096,13.5328 27.2,13.9512 27.2,14.4 L27.2,17.6 C27.2,18.2984 26.7424,18.9096 26.0624,19.1192 L25.664,19.2416 L25.536,19.6376 C25.0008,21.3024 24.2384,22.84 23.2688,24.208 C23.0312,24.5448 22.8,24.8432 22.5992,25.0712 L22.4,25.2984 L22.4,28.5984 C22.4,30.0144 23.1864,31.2872 24.4528,31.9208 L32.0952,35.7416 C34.0104,36.6992 35.2,38.624 35.2,40.7656 L35.2,43.2 L35.2,43.2 Z" id="Shape"></path>
        </g>
    </g>
</svg>